<?xml version="1.0" standalone="no"?>
<!DOCTYPE svg PUBLIC "-//W3C//DTD SVG 1.1//EN" "http://www.w3.org/Graphics/SVG/1.1/DTD/svg11.dtd" >
<svg xmlns="http://www.w3.org/2000/svg" xmlns:xlink="http://www.w3.org/1999/xlink" version="1.1">
<metadata>
Created by FontForge 20170731 at Mon Jul 31 08:02:27 2023
 By Aleksey,,,
Copyright Fredric Harbin 2015
http://pho-ku.me
</metadata>
<defs>
<font id="Mechsuit" horiz-adv-x="2508" >
  <font-face 
    font-family="Mechsuit"
    font-weight="400"
    font-stretch="normal"
    units-per-em="2048"
    panose-1="0 0 0 0 0 0 0 0 0 0"
    ascent="1638"
    descent="-410"
    x-height="2048"
    cap-height="2048"
    bbox="-256 -1024 4864 3584"
    underline-thickness="2"
    underline-position="-6"
    unicode-range="U+000D-20AC"
  />
<missing-glyph horiz-adv-x="1352" 
d="M368 204h616v1640h-616v-276v-1364zM266 1946h820v-1844h-820v924v920z" />
    <glyph glyph-name=".notdef" horiz-adv-x="1352" 
d="M368 204h616v1640h-616v-276v-1364zM266 1946h820v-1844h-820v924v920z" />
    <glyph glyph-name=".null" horiz-adv-x="0" 
 />
    <glyph glyph-name=".null" horiz-adv-x="0" 
 />
    <glyph glyph-name="nonmarkingreturn" unicode="&#xd;" horiz-adv-x="0" 
 />
    <glyph glyph-name="space" unicode=" " horiz-adv-x="716" 
 />
    <glyph glyph-name="exclam" unicode="!" horiz-adv-x="716" 
d="M0 0v358v154h512v-512h-512zM128 768l-128 256v716v308h512v-1024l-128 -256h-256z" />
    <glyph glyph-name="quotedbl" unicode="&#x22;" horiz-adv-x="1484" 
d="M0 1792v180v76l256 256h256v-256l-256 -256h-256zM768 1792v256l256 256h256v-256l-256 -256h-256z" />
    <glyph glyph-name="numbersign" unicode="#" horiz-adv-x="2252" 
d="M256 0l768 768h256v256l768 768v-512h-256v-512h256v-512h-256v-256h-512v256h-512v-256h-512zM0 256v358v154h256v512h-256v512h256v256h512v-256h512v256h512v-256l-512 -512h-512v-512l-512 -512h-256z" />
    <glyph glyph-name="dollar" unicode="$" 
d="M0 0v358v154h512zM768 -128v128h-512l512 512h1024l-256 256h-512l512 512h256l512 -512v-512l-256 -256h-512v-128h-768zM1792 1536l512 512v-512h-512zM512 768l-512 512v358v154l256 256h512v128h768v-128h512l-512 -512h-1024l256 -256h512l-512 -512h-256z" />
    <glyph glyph-name="percent" unicode="%" 
d="M1536 0v512l256 256h512v-512l-256 -256h-512zM0 1280v358v154l256 256h512v-512l-256 -256h-512zM0 0v180v76l1792 1792h512v-256l-1792 -1792h-512z" />
    <glyph glyph-name="ampersand" unicode="&#x26;" 
d="M1792 0l512 512v-512h-512zM1536 1280v256h-1024v-256h1024zM0 0v538v230l256 256l-256 256v768h2048v-512l-768 -768h-768v-256h768l768 768h256v-512l-768 -768h-1536z" />
    <glyph glyph-name="quotesingle" unicode="'" horiz-adv-x="716" 
d="M0 1792v180v76l256 256h256v-256l-256 -256h-256z" />
    <glyph glyph-name="parenleft" unicode="(" horiz-adv-x="1228" 
d="M256 -256l-256 256v1434v614l256 256h768l-512 -512v-1536l512 -512h-768z" />
    <glyph glyph-name="parenright" unicode=")" horiz-adv-x="1228" 
d="M0 -256l512 512v1536l-512 512h768l256 -256v-2048l-256 -256h-768z" />
    <glyph glyph-name="asterisk" unicode="*" horiz-adv-x="972" 
d="M0 1536v180v76l128 128l-128 128v256h256v-2q9 -9 26 -25.5t47.5 -47t54.5 -53.5l128 128h256v-256h-2q-9 -9 -25.5 -26t-47 -47.5t-53.5 -54.5l128 -128v-256h-256l-128 128l-128 -128h-256z" />
    <glyph glyph-name="plus" unicode="+" horiz-adv-x="1740" 
d="M512 256v512h-512v358v154h512v512h512v-512h512v-512h-512v-512h-512z" />
    <glyph glyph-name="comma" unicode="," horiz-adv-x="716" 
d="M0 -256v180v76l256 256h-256v256h512v-512l-256 -256h-256z" />
    <glyph glyph-name="hyphen" unicode="-" horiz-adv-x="1740" 
d="M0 768v358v154h1536v-512h-1536z" />
    <glyph glyph-name="period" unicode="." horiz-adv-x="716" 
d="M0 0v358v154h512v-512h-512z" />
    <glyph glyph-name="slash" unicode="/" 
d="M0 0v180v76l1792 1792h512v-256l-1792 -1792h-512z" />
    <glyph glyph-name="zero" unicode="0" 
d="M512 0l512 512h768v768l512 512v-1536l-256 -256h-1536zM0 256v1076v460l256 256h1536l-512 -512h-768v-768zM0 0l2048 2048h256l-2048 -2048h-256z" />
    <glyph glyph-name="one" unicode="1" horiz-adv-x="1228" 
d="M512 0v1280l512 512v-1792h-512zM0 1536v180v76l256 256h768l-512 -512h-512z" />
    <glyph glyph-name="two" unicode="2" 
d="M0 0l512 512h1792v-512h-2304zM0 256v538v230l256 256h768zM0 1536v180v76l256 256h1536l-512 -512h-1280zM768 768l512 512h512v256h-256l512 512l256 -256v-768l-256 -256h-1280z" />
    <glyph glyph-name="three" unicode="3" 
d="M0 0v180v76l256 256h512l-512 -512h-256zM512 768v256l256 256h768l-512 -512h-512zM512 0l512 512h768v256h-512l1024 1024v-1792h-1792zM256 1536l-256 256v180v76h2304l-512 -512h-1536z" />
    <glyph glyph-name="four" unicode="4" 
d="M0 512v180v76l1280 1280h768l-1536 -1536h-512zM1792 0v512h-1024l512 512h512v512l512 512v-2048h-512z" />
    <glyph glyph-name="five" unicode="5" 
d="M0 0v180v76l256 256h1024l512 -512h-1792zM2048 0l-512 512h256l-256 256h-256l-512 512h1024l512 -512v-512zM256 768l-256 256v538v230l1024 -1024h-768zM512 1536l-512 512h2304v-512h-1792z" />
    <glyph glyph-name="six" unicode="6" 
d="M256 0l512 512h1024v256h-768l512 512h768v-1024l-256 -256h-1792zM0 0v538v230l1280 1280h768z" />
    <glyph glyph-name="seven" unicode="7" 
d="M0 1536v358v154h1792l-512 -512h-1280zM0 0l2048 2048h256v-512l-1536 -1536h-768z" />
    <glyph glyph-name="eight" unicode="8" 
d="M0 0v538v230l256 256l-256 256v768h2048l-512 -512h-1024v-256h768l-512 -512h-256v-256zM256 0l512 512h1024v256h-768l512 512h256v256l512 512v-768l-256 -256l256 -256v-768h-2048z" />
    <glyph glyph-name="nine" unicode="9" 
d="M0 768v716v308l256 256h1792l-512 -512h-1024v-256h768l-512 -512h-768zM256 0l2048 2048v-768l-1280 -1280h-768z" />
    <glyph glyph-name="colon" unicode=":" horiz-adv-x="716" 
d="M0 0v358v154h512v-512h-512zM0 1536v358v154h512v-512h-512z" />
    <glyph glyph-name="semicolon" unicode=";" horiz-adv-x="716" 
d="M0 -256v180v76l256 256h-256v256h512v-512l-256 -256h-256zM0 1536v358v154h512v-512h-512z" />
    <glyph glyph-name="less" unicode="&#x3c;" horiz-adv-x="1740" 
d="M1024 0l-1024 1024l1024 1024h512v-256l-768 -768l768 -768v-256h-512z" />
    <glyph glyph-name="equal" unicode="=" horiz-adv-x="1740" 
d="M0 256v358v154h1536v-512h-1536zM0 1280v358v154h1536v-512h-1536z" />
    <glyph glyph-name="greater" unicode="&#x3e;" horiz-adv-x="1740" 
d="M0 0v180v76l768 768l-768 768v256h512l1024 -1024l-1024 -1024h-512z" />
    <glyph glyph-name="question" unicode="?" 
d="M1024 0v512h512v-512h-512zM0 1280v358v154l256 256h1536l-512 -512h-768v-256h-512zM1024 640v384l1024 1024h256v-512l-768 -768v-128h-512z" />
    <glyph glyph-name="at" unicode="@" 
d="M1792 0l512 512v-512h-512zM768 768l512 512h512l-512 -512h-512zM0 0v716v308l1024 1024h1280v-512h-1024l-768 -768v-256h768l768 768h256v-512l-768 -768h-1536z" />
    <glyph glyph-name="A" unicode="A" 
d="M0 0v180v76l1792 1792h512v-2048h-512v256h-768l512 512h256v512l-1280 -1280h-512z" />
    <glyph glyph-name="B" unicode="B" 
d="M0 0v1434v614h1792l-512 -512h-768v-256h768l768 768h256v-512l-512 -512l512 -512v-512h-2048l512 512h768l-256 256h-768v-256z" />
    <glyph glyph-name="C" unicode="C" 
d="M0 0l512 512h1536l256 -256v-256h-2304zM0 256v896v384l512 512h1792v-256l-256 -256h-1280l-256 -256v-512z" />
    <glyph glyph-name="D" unicode="D" 
d="M0 0l512 512h768l512 512l-512 512h-768v-768l-512 -512v1254v538h1536l768 -768v-512l-768 -768h-1536z" />
    <glyph glyph-name="E" unicode="E" 
d="M0 0v180v76l768 768l-768 768v256h512l768 -768h768v-512h-768l-256 -256h1024l256 -256v-256h-2304zM1280 1536l-512 512h1536v-256l-256 -256h-768z" />
    <glyph glyph-name="F" unicode="F" 
d="M0 0v1434v614l512 -512v-256h1280v-256l-256 -256h-1024v-768h-512zM768 1536l-512 512h2048v-256l-256 -256h-1280z" />
    <glyph glyph-name="G" unicode="G" 
d="M1024 768v256l256 256h1024l-512 -512h-768zM256 0l-256 256v716v308l768 768h1536v-256l-256 -256h-1024l-512 -512v-512h1280l512 512v-768l-256 -256h-1792z" />
    <glyph glyph-name="H" unicode="H" 
d="M0 0v1434v614h512v-768h512l-512 -512v-768h-512zM1792 0v768h-1024l512 512h512v768h512v-2048h-512z" />
    <glyph glyph-name="I" unicode="I" horiz-adv-x="716" 
d="M0 0v1434v614h512v-2048h-512z" />
    <glyph glyph-name="J" unicode="J" 
d="M0 0v180v76l256 256h1024l-512 -512h-768zM1024 0l768 768v1280h512v-1536l-512 -512h-768z" />
    <glyph glyph-name="K" unicode="K" 
d="M0 0v1434v614h512v-2048h-512zM1792 0l-1024 1024l1024 1024h512v-256l-768 -768l768 -768v-256h-512z" />
    <glyph glyph-name="L" unicode="L" 
d="M256 0l512 512h1280l256 -256v-256h-2048zM0 0v1434v614h512v-1536z" />
    <glyph glyph-name="M" unicode="M" horiz-adv-x="3532" 
d="M0 0v1076v460l512 -512v-1024h-512zM1792 0l-1792 1792v180v76h512l1792 -1792v-256h-512zM2816 0l-1792 1792v256h512l1792 -1792v-256h-512z" />
    <glyph glyph-name="N" unicode="N" 
d="M0 0v1076v460l512 -512v-1024h-512zM1792 0l-1792 1792v180v76h512l1280 -1280v1280h512v-2048h-512z" />
    <glyph glyph-name="O" unicode="O" 
d="M256 0l512 512h1024v768l512 512v-1536l-256 -256h-1792zM0 0v1254v538l256 256h2048l-512 -512h-1280v-1024z" />
    <glyph glyph-name="P" unicode="P" 
d="M0 0v1434v614h1792l-512 -512h-768v-1536h-512zM768 768v512h512l768 768h256v-512l-768 -768h-768z" />
    <glyph glyph-name="Q" unicode="Q" 
d="M1792 0l-768 768h512l768 -768h-512zM256 0l-256 256v1076v460l256 256h1792l256 -256v-1536l-512 512v768h-1280v-1024h512l512 -512h-1280z" />
    <glyph glyph-name="R" unicode="R" 
d="M0 0v1434v614l512 -512v-1536h-512zM1792 0l-768 768h-256v512h512l256 256h-768l-512 512h2048v-512l-512 -512h-2q-9 -9 -25.5 -26t-47 -47.5t-53.5 -54.5l640 -640v-256h-512z" />
    <glyph glyph-name="S" unicode="S" 
d="M0 0v358v154h1280l-1280 1280v256h512l1792 -1792v-256h-2304zM1280 1536l-512 512h1536v-512h-1024z" />
    <glyph glyph-name="T" unicode="T" horiz-adv-x="2252" 
d="M768 0v1536h-768v358v154h2048v-256l-256 -256h-512v-1536h-512z" />
    <glyph glyph-name="U" unicode="U" 
d="M256 0l-256 256v1254v538h512v-1536h1024l-512 -512h-768zM1280 0l512 512v1536h512v-1792l-256 -256h-768z" />
    <glyph glyph-name="V" unicode="V" 
d="M0 512v1076v460h512v-1024zM0 0v180v76l1792 1792h512v-256l-1792 -1792h-512z" />
    <glyph glyph-name="W" unicode="W" horiz-adv-x="3532" 
d="M1792 0l-1792 1792v180v76h512l1792 -1792v-256h-512zM2816 0l-1792 1792v256h512l1792 -1792v-256h-512zM3328 512l-512 512v1024h512v-1536z" />
    <glyph glyph-name="X" unicode="X" 
d="M1792 0l-512 512l384 384l640 -640v-256h-512zM640 1152l-640 640v180v76h512l512 -512zM0 0v180v76l1792 1792h512v-256l-1792 -1792h-512z" />
    <glyph glyph-name="Y" unicode="Y" 
d="M640 1152l-640 640v180v76h512l512 -512zM768 0v1024l1024 1024h512v-256l-1024 -1024v-768h-512z" />
    <glyph glyph-name="Z" unicode="Z" 
d="M768 0l512 512h1024v-512h-1536zM0 0v256l1280 1280h-1280v358v154h2304v-256l-1792 -1792h-512z" />
    <glyph glyph-name="bracketleft" unicode="[" horiz-adv-x="1228" 
d="M0 -256v1792v768h1024v-512h-512v-1536h512v-512h-1024z" />
    <glyph glyph-name="backslash" unicode="\" 
d="M1792 0l-1792 1792v180v76h512l1792 -1792v-256h-512z" />
    <glyph glyph-name="bracketright" unicode="]" horiz-adv-x="1228" 
d="M0 -256v358v154h512v1536h-512v512h1024v-2560h-1024z" />
    <glyph glyph-name="asciicircum" unicode="^" horiz-adv-x="1484" 
d="M0 1536v180v76l512 512h256l512 -512v-256h-256l-256 256l-128 128l-384 -384h-256z" />
    <glyph glyph-name="underscore" unicode="_" 
d="M0 -256v180v76h1536h768v-256h-2304z" />
    <glyph glyph-name="grave" unicode="`" horiz-adv-x="716" 
d="M256 1792l-256 256v180v76h256l256 -256v-256h-256z" />
    <glyph glyph-name="a" unicode="a" 
d="M0 0v1434v614h512l1792 -1792v-256h-512l-1280 1280v-512h256l512 -512h-768v-256h-512z" />
    <glyph glyph-name="b" unicode="b" 
d="M0 0v1434v614h1792l-512 -512h-768v-256h768l768 768h256v-512l-512 -512l512 -512v-512h-2048l512 512h768l-256 256h-768v-256z" />
    <glyph glyph-name="c" unicode="c" 
d="M0 0l512 512h1536l256 -256v-256h-2304zM0 256v896v384l512 512h1792v-256l-256 -256h-1280l-256 -256v-512z" />
    <glyph glyph-name="d" unicode="d" 
d="M0 0l512 512h768l512 512l-512 512h-768v-768l-512 -512v1254v538h1536l768 -768v-512l-768 -768h-1536z" />
    <glyph glyph-name="e" unicode="e" 
d="M0 0v180v76l768 768l-768 768v256h512l768 -768h768v-512h-768l-256 -256h1024l256 -256v-256h-2304zM1280 1536l-512 512h1536v-256l-256 -256h-768z" />
    <glyph glyph-name="f" unicode="f" 
d="M0 0v1434v614l512 -512v-256h1280v-256l-256 -256h-1024v-768h-512zM768 1536l-512 512h2048v-256l-256 -256h-1280z" />
    <glyph glyph-name="g" unicode="g" 
d="M1024 768v256l256 256h1024l-512 -512h-768zM256 0l-256 256v716v308l768 768h1536v-256l-256 -256h-1024l-512 -512v-512h1280l512 512v-768l-256 -256h-1792z" />
    <glyph glyph-name="h" unicode="h" 
d="M0 0v1434v614h512v-768h512l-512 -512v-768h-512zM1792 0v768h-1024l512 512h512v768h512v-2048h-512z" />
    <glyph glyph-name="i" unicode="i" horiz-adv-x="716" 
d="M0 0v1434v614h512v-2048h-512z" />
    <glyph glyph-name="j" unicode="j" 
d="M0 0v180v76l256 256h1024l-512 -512h-768zM1024 0l768 768v1280h512v-1536l-512 -512h-768z" />
    <glyph glyph-name="k" unicode="k" 
d="M0 0v1434v614h512v-2048h-512zM1792 0l-1024 1024l1024 1024h512v-256l-768 -768l768 -768v-256h-512z" />
    <glyph glyph-name="l" unicode="l" 
d="M256 0l512 512h1280l256 -256v-256h-2048zM0 0v1434v614h512v-1536z" />
    <glyph glyph-name="m" unicode="m" horiz-adv-x="3532" 
d="M2816 0v1024l512 512v-1536h-512zM0 0v180v76l1792 1792h512v-256l-1792 -1792h-512zM1024 0v256l1792 1792h512v-256l-1792 -1792h-512z" />
    <glyph glyph-name="n" unicode="n" 
d="M0 0v1076v460l512 -512v-1024h-512zM1792 0l-1792 1792v180v76h512l1280 -1280v1280h512v-2048h-512z" />
    <glyph glyph-name="o" unicode="o" 
d="M256 0l512 512h1024v768l512 512v-1536l-256 -256h-1792zM0 0v1254v538l256 256h2048l-512 -512h-1280v-1024z" />
    <glyph glyph-name="p" unicode="p" 
d="M0 0v1434v614h1792l-512 -512h-768v-1536h-512zM768 768v512h512l768 768h256v-512l-768 -768h-768z" />
    <glyph glyph-name="q" unicode="q" 
d="M1792 0l-768 768h512l768 -768h-512zM256 0l-256 256v1076v460l256 256h1792l256 -256v-1536l-512 512v768h-1280v-1024h512l512 -512h-1280z" />
    <glyph glyph-name="r" unicode="r" 
d="M0 0v1434v614l512 -512v-1536h-512zM1792 0l-768 768h-256v512h512l256 256h-768l-512 512h2048v-512l-512 -512h-2q-9 -9 -25.5 -26t-47 -47.5t-53.5 -54.5l640 -640v-256h-512z" />
    <glyph glyph-name="s" unicode="s" 
d="M0 0v358v154h1280l-1280 1280v256h512l1792 -1792v-256h-2304zM1280 1536l-512 512h1536v-512h-1024z" />
    <glyph glyph-name="t" unicode="t" horiz-adv-x="2252" 
d="M768 0v1536h-768v358v154h2048v-256l-256 -256h-512v-1536h-512z" />
    <glyph glyph-name="u" unicode="u" 
d="M256 0l-256 256v1254v538h512v-1536h1024l-512 -512h-768zM1280 0l512 512v1536h512v-1792l-256 -256h-768z" />
    <glyph glyph-name="v" unicode="v" 
d="M1792 0l-1792 1792v180v76h512l1792 -1792v-256h-512zM2304 512l-512 512v1024h512v-1536z" />
    <glyph glyph-name="w" unicode="w" horiz-adv-x="3532" 
d="M0 512v1076v460h512v-1024zM0 0v180v76l1792 1792h512v-256l-1792 -1792h-512zM1024 0v256l1792 1792h512v-256l-1792 -1792h-512z" />
    <glyph glyph-name="x" unicode="x" 
d="M1792 0l-512 512l384 384l640 -640v-256h-512zM640 1152l-640 640v180v76h512l512 -512zM0 0v180v76l1792 1792h512v-256l-1792 -1792h-512z" />
    <glyph glyph-name="y" unicode="y" 
d="M640 1152l-640 640v180v76h512l512 -512zM768 0v1024l1024 1024h512v-256l-1024 -1024v-768h-512z" />
    <glyph glyph-name="z" unicode="z" 
d="M768 0l512 512h1024v-512h-1536zM0 0v256l1280 1280h-1280v358v154h2304v-256l-1792 -1792h-512z" />
    <glyph glyph-name="braceleft" unicode="{" horiz-adv-x="1484" 
d="M512 -256l-256 256v768l-256 256l256 256v768l256 256h768l-512 -512v-1536l512 -512h-768z" />
    <glyph glyph-name="bar" unicode="|" horiz-adv-x="716" 
d="M0 -256v1792v768h512v-2560h-512z" />
    <glyph glyph-name="braceright" unicode="}" horiz-adv-x="1484" 
d="M0 -256l512 512v1536l-512 512h768l256 -256v-768l256 -256l-256 -256v-768l-256 -256h-768z" />
    <glyph glyph-name="asciitilde" unicode="~" horiz-adv-x="2764" 
d="M0 512v180v76l512 512h768l256 -256v-2q9 -9 26 -25.5t47.5 -47t54.5 -53.5l384 384h512v-256l-512 -512h-768l-256 256l-128 128l-384 -384h-512z" />
    <glyph glyph-name="exclamdown" unicode="&#xa1;" horiz-adv-x="716" 
d="M0 0v716v308l128 256h256l128 -256v-1024h-512zM0 1536v358v154h512v-512h-512z" />
    <glyph glyph-name="cent" unicode="&#xa2;" 
d="M768 -128v128h-768v538v230l512 512v-768h1536l256 -256v-256h-768v-128h-768zM0 1024v716v308h768v128h768v-128h768v-256l-256 -256h-1536z" />
    <glyph glyph-name="sterling" unicode="&#xa3;" 
d="M0 0v180v76l768 768h-512v512h512v512l256 256h1280v-256l-256 -256h-768v-256h512v-512h-512v-256l-256 -256h1024l256 -256v-256h-2304z" />
    <glyph glyph-name="currency" unicode="&#xa4;" horiz-adv-x="2252" 
d="M1280 768v512h-512v-512h512zM256 0l-256 256l256 256v1024l-256 256l256 256l256 -256h1024l256 256l256 -256l-256 -256v-1024l256 -256l-256 -256l-256 256h-1024z" />
    <glyph glyph-name="yen" unicode="&#xa5;" 
d="M896 0v384h-384v384h384v128h-384v384h256l-768 768v180v76h512l512 -512v-2q9 -9 26 -25.5t47.5 -47t54.5 -53.5l640 640h512v-256l-768 -768h256v-384h-384v-128h384v-384h-384v-384h-512z" />
    <glyph glyph-name="brokenbar" unicode="&#xa6;" horiz-adv-x="716" 
d="M0 -256v716v308h512v-1024h-512zM0 1280v716v308h512v-1024h-512z" />
    <glyph glyph-name="section" unicode="&#xa7;" 
d="M1536 1024l-256 256h-512l256 -256h512zM0 0v358v154h1792l-256 256h-1024l-256 256v256l-256 256v512l256 256h2048v-512h-1792l256 -256h1024l256 -256v-256l256 -256v-512l-256 -256h-2048z" />
    <glyph glyph-name="dieresis" unicode="&#xa8;" horiz-adv-x="1740" 
d="M256 2304v512h512v-512h-512zM1024 2304v512h512v-512h-512z" />
    <glyph glyph-name="guillemotleft" unicode="&#xab;" horiz-adv-x="2764" 
d="M1024 0l-1024 1024l1024 1024h512v-256l-768 -768l768 -768v-256h-512zM2048 0l-1024 1024l1024 1024h512v-256l-768 -768l768 -768v-256h-512z" />
    <glyph glyph-name="logicalnot" unicode="&#xac;" horiz-adv-x="2252" 
d="M1536 256v512h-1536v358v154h2048v-1024h-512z" />
    <glyph glyph-name="macron" unicode="&#xaf;" horiz-adv-x="2252" 
d="M256 2304v512h1792v-512h-1792z" />
    <glyph glyph-name="degree" unicode="&#xb0;" horiz-adv-x="1484" 
d="M640 2304l-128 128v256l128 128h256l128 -128v-256l-128 -128h-256z" />
    <glyph glyph-name="plusminus" unicode="&#xb1;" horiz-adv-x="1740" 
d="M0 0v358v154h1536v-512h-1536zM512 768v512h-512v358v154h512v512h512v-512h512v-512h-512v-512h-512z" />
    <glyph glyph-name="acute" unicode="&#xb4;" horiz-adv-x="1484" 
d="M512 2304v256l256 256h256v-256l-256 -256h-256z" />
    <glyph glyph-name="periodcentered" unicode="&#xb7;" horiz-adv-x="972" 
d="M256 768v512h512v-512h-512z" />
    <glyph glyph-name="cedilla" unicode="&#xb8;" horiz-adv-x="1484" 
d="M512 -768v256l256 256h-256v256h340h172v-512l-256 -256h-256z" />
    <glyph glyph-name="guillemotright" unicode="&#xbb;" horiz-adv-x="2764" 
d="M0 0v180v76l768 768l-768 768v256h512l1024 -1024l-1024 -1024h-512zM1024 0v256l768 768l-768 768v256h512l1024 -1024l-1024 -1024h-512z" />
    <glyph glyph-name="questiondown" unicode="&#xbf;" 
d="M512 0l512 512h768v256h512v-512l-256 -256h-1536zM0 0v358v154l768 768v128h512v-384l-1024 -1024h-256zM768 1536v512h512v-512h-512z" />
    <glyph glyph-name="Agrave" unicode="&#xc0;" 
d="M0 0v180v76l1792 1792h512v-2048h-512v256h-768l512 512h256v512l-1280 -1280h-512zM2048 2304l-256 256v256h256l256 -256v-256h-256z" />
    <glyph glyph-name="Aacute" unicode="&#xc1;" 
d="M0 0v180v76l1792 1792h512v-2048h-512v256h-768l512 512h256v512l-1280 -1280h-512zM1792 2304v256l256 256h256v-256l-256 -256h-256z" />
    <glyph glyph-name="Acircumflex" unicode="&#xc2;" 
d="M0 0v180v76l1792 1792h512v-2048h-512v256h-768l512 512h256v512l-1280 -1280h-512zM1536 2304v256l256 256h512l256 -256v-256h-256l-256 256l-256 -256h-256z" />
    <glyph glyph-name="Atilde" unicode="&#xc3;" horiz-adv-x="2764" 
d="M0 0v180v76l1792 1792h512v-2048h-512v256h-768l512 512h256v512l-1280 -1280h-512zM1280 2304v256l256 256h512l256 -256l256 256h256v-256l-256 -256h-512l-256 256l-256 -256h-256z" />
    <glyph glyph-name="Adieresis" unicode="&#xc4;" horiz-adv-x="2764" 
d="M0 0v180v76l1792 1792h512v-2048h-512v256h-768l512 512h256v512l-1280 -1280h-512zM1408 2304v512h512v-512h-512zM2176 2304v512h512v-512h-512z" />
    <glyph glyph-name="Aring" unicode="&#xc5;" 
d="M0 0v180v76l1792 1792h512v-2048h-512v256h-768l512 512h256v512l-1280 -1280h-512zM1920 2304l-128 128v256l128 128h256l128 -128v-256l-128 -128h-256z" />
    <glyph glyph-name="AE" unicode="&#xc6;" horiz-adv-x="4300" 
d="M0 0v180v76l1792 1792h2304v-256l-256 -256h-1536v-256h1536v-512h-1536v-256h1536l256 -256v-256h-2304v256h-768l512 512h256v512l-1280 -1280h-512z" />
    <glyph glyph-name="Ccedilla" unicode="&#xc7;" 
d="M960 -768v256l256 256h-256v256h-960l512 512h1536l256 -256v-256h-832v-512l-256 -256h-256zM0 256l512 512v512l256 256h1280l256 256v256h-1792l-512 -512v-384v-896z" />
    <glyph glyph-name="Egrave" unicode="&#xc8;" 
d="M0 0v180v76l768 768l-768 768v256h512l768 -768h768v-512h-768l-256 -256h1024l256 -256v-256h-2304zM1280 1536l-512 512h1536v-256l-256 -256h-768zM1280 2304l-256 256v256h256l256 -256v-256h-256z" />
    <glyph glyph-name="Eacute" unicode="&#xc9;" 
d="M0 0v180v76l768 768l-768 768v256h512l768 -768h768v-512h-768l-256 -256h1024l256 -256v-256h-2304zM1280 1536l-512 512h1536v-256l-256 -256h-768zM1024 2304v256l256 256h256v-256l-256 -256h-256z" />
    <glyph glyph-name="Ecircumflex" unicode="&#xca;" 
d="M0 0v180v76l768 768l-768 768v256h512l768 -768h768v-512h-768l-256 -256h1024l256 -256v-256h-2304zM1280 1536l-512 512h1536v-256l-256 -256h-768zM768 2304v256l256 256h512l256 -256v-256h-256l-256 256l-256 -256h-256z" />
    <glyph glyph-name="Edieresis" unicode="&#xcb;" 
d="M0 0v180v76l768 768l-768 768v256h512l768 -768h768v-512h-768l-256 -256h1024l256 -256v-256h-2304zM1280 1536l-512 512h1536v-256l-256 -256h-768zM512 2304v512h512v-512h-512zM1280 2304v512h512v-512h-512z" />
    <glyph glyph-name="Igrave" unicode="&#xcc;" horiz-adv-x="716" 
d="M0 0v1434v614h512v-2048h-512zM256 2304l-256 256v180v76h256l256 -256v-256h-256z" />
    <glyph glyph-name="Iacute" unicode="&#xcd;" horiz-adv-x="716" 
d="M0 0v1434v614h512v-2048h-512zM0 2304v180v76l256 256h256v-256l-256 -256h-256z" />
    <glyph glyph-name="Icircumflex" unicode="&#xce;" horiz-adv-x="1228" 
d="M256 0v1280v768h512v-2048h-512zM0 2304v180v76l256 256h512l256 -256v-256h-256l-256 256l-256 -256h-256z" />
    <glyph glyph-name="Idieresis" unicode="&#xcf;" horiz-adv-x="1228" 
d="M256 0v1280v768h512v-2048h-512zM-128 2304v512h512v-512h-512zM640 2304v512h512v-512h-512z" />
    <glyph glyph-name="Eth" unicode="&#xd0;" horiz-adv-x="3020" 
d="M512 0l512 512h768l512 512l-512 512h-768v-768l-512 -512v512h-512v358v154h512v768h1536l768 -768v-512l-768 -768h-1536z" />
    <glyph glyph-name="Ntilde" unicode="&#xd1;" 
d="M0 0v1076v460l512 -512v-1024h-512zM1792 0l-1792 1792v180v76h512l1280 -1280v1280h512v-2048h-512zM406 2304v256l256 256h512l256 -256l256 256h256v-256l-256 -256h-512l-256 256l-256 -256h-256z" />
    <glyph glyph-name="Ograve" unicode="&#xd2;" 
d="M256 0l512 512h1024v768l512 512v-1536l-256 -256h-1792zM0 0v1254v538l256 256h2048l-512 -512h-1280v-1024zM1024 2304l-256 256v256h256l256 -256v-256h-256z" />
    <glyph glyph-name="Oacute" unicode="&#xd3;" 
d="M256 0l512 512h1024v768l512 512v-1536l-256 -256h-1792zM0 0v1254v538l256 256h2048l-512 -512h-1280v-1024zM1024 2304v256l256 256h256v-256l-256 -256h-256z" />
    <glyph glyph-name="Ocircumflex" unicode="&#xd4;" 
d="M256 0l512 512h1024v768l512 512v-1536l-256 -256h-1792zM0 0v1254v538l256 256h2048l-512 -512h-1280v-1024zM682 2304v256l256 256h512l256 -256v-256h-256l-256 256l-256 -256h-256z" />
    <glyph glyph-name="Otilde" unicode="&#xd5;" 
d="M256 0l512 512h1024v768l512 512v-1536l-256 -256h-1792zM0 0v1254v538l256 256h2048l-512 -512h-1280v-1024zM452 2296v256l256 256h512l256 -256l256 256h256v-256l-256 -256h-512l-256 256l-256 -256h-256z" />
    <glyph glyph-name="Odieresis" unicode="&#xd6;" 
d="M256 0l512 512h1024v768l512 512v-1536l-256 -256h-1792zM0 0v1254v538l256 256h2048l-512 -512h-1280v-1024zM512 2304v512h512v-512h-512zM1280 2304v512h512v-512h-512z" />
    <glyph glyph-name="multiply" unicode="&#xd7;" horiz-adv-x="2252" 
d="M256 256v256l512 512l-512 512v256h512l256 -256v-2q9 -9 26 -25.5t47.5 -47t54.5 -53.5l384 384h512v-256l-512 -512l512 -512v-256h-512l-256 256l-128 128l-384 -384h-512z" />
    <glyph glyph-name="Oslash" unicode="&#xd8;" horiz-adv-x="2764" 
d="M-256 -512v256l256 256h172h84zM512 512l1024 1024h256l-1024 -1024h-256zM0 0v1254v538l256 256h1792l-512 -512h-1024v-1024zM256 0l512 512h1024v1024l512 512v-1792l-256 -256h-1792zM2048 2048l512 512v-256l-256 -256h-256z" />
    <glyph glyph-name="Ugrave" unicode="&#xd9;" 
d="M256 0l-256 256v1254v538h512v-1536h1024l-512 -512h-768zM1280 0l512 512v1536h512v-1792l-256 -256h-768zM1024 2304l-256 256v256h256l256 -256v-256h-256z" />
    <glyph glyph-name="Uacute" unicode="&#xda;" 
d="M256 0l-256 256v1254v538h512v-1536h1024l-512 -512h-768zM1280 0l512 512v1536h512v-1792l-256 -256h-768zM1024 2304v256l256 256h256v-256l-256 -256h-256z" />
    <glyph glyph-name="Ucircumflex" unicode="&#xdb;" 
d="M256 0l-256 256v1254v538h512v-1536h1024l-512 -512h-768zM1280 0l512 512v1536h512v-1792l-256 -256h-768zM644 2304v256l256 256h512l256 -256v-256h-256l-256 256l-256 -256h-256z" />
    <glyph glyph-name="Udieresis" unicode="&#xdc;" 
d="M256 0l-256 256v1254v538h512v-1536h1024l-512 -512h-768zM1280 0l512 512v1536h512v-1792l-256 -256h-768zM512 2304v512h512v-512h-512zM1280 2304v512h512v-512h-512z" />
    <glyph glyph-name="Yacute" unicode="&#xdd;" 
d="M640 1152l-640 640v180v76h512l512 -512zM768 0v1024l1024 1024h512v-256l-1024 -1024v-768h-512zM768 2304v256l256 256h256v-256l-256 -256h-256z" />
    <glyph glyph-name="Thorn" unicode="&#xde;" horiz-adv-x="1996" 
d="M1024 768l256 256l-256 256h-512v-512h512zM0 0v1434v614h512v-256h768l512 -512v-512l-512 -512h-768v-256h-512z" />
    <glyph glyph-name="germandbls" unicode="&#xdf;" 
d="M0 0v1434v614h2304v-512l-512 -512l512 -512v-512h-1536v512h768l-256 256h-512v512h512l256 256h-1024v-1536h-512z" />
    <glyph glyph-name="agrave" unicode="&#xe0;" 
d="M0 0v180v76l1792 1792h512v-2048h-512v256h-768l512 512h256v512l-1280 -1280h-512zM2048 2304l-256 256v256h256l256 -256v-256h-256z" />
    <glyph glyph-name="aacute" unicode="&#xe1;" 
d="M0 0v180v76l1792 1792h512v-2048h-512v256h-768l512 512h256v512l-1280 -1280h-512zM1792 2304v256l256 256h256v-256l-256 -256h-256z" />
    <glyph glyph-name="acircumflex" unicode="&#xe2;" horiz-adv-x="2764" 
d="M0 0v180v76l1792 1792h512v-2048h-512v256h-768l512 512h256v512l-1280 -1280h-512zM1536 2304v256l256 256h512l256 -256v-256h-256l-256 256l-256 -256h-256z" />
    <glyph glyph-name="atilde" unicode="&#xe3;" horiz-adv-x="2764" 
d="M0 0v180v76l1792 1792h512v-2048h-512v256h-768l512 512h256v512l-1280 -1280h-512zM1280 2304v256l256 256h512l256 -256l256 256h256v-256l-256 -256h-512l-256 256l-256 -256h-256z" />
    <glyph glyph-name="adieresis" unicode="&#xe4;" horiz-adv-x="2764" 
d="M0 0v180v76l1792 1792h512v-2048h-512v256h-768l512 512h256v512l-1280 -1280h-512zM1408 2304v512h512v-512h-512zM2176 2304v512h512v-512h-512z" />
    <glyph glyph-name="aring" unicode="&#xe5;" 
d="M0 0v180v76l1792 1792h512v-2048h-512v256h-768l512 512h256v512l-1280 -1280h-512zM1920 2304l-128 128v256l128 128h256l128 -128v-256l-128 -128h-256z" />
    <glyph glyph-name="ae" unicode="&#xe6;" horiz-adv-x="4300" 
d="M0 0v180v76l1792 1792h2304v-256l-256 -256h-1536v-256h1536v-512h-1536v-256h1536l256 -256v-256h-2304v256h-768l512 512h256v512l-1280 -1280h-512z" />
    <glyph glyph-name="ccedilla" unicode="&#xe7;" 
d="M960 -768v256l256 256h-256v256h-960l512 512h1536l256 -256v-256h-832v-512l-256 -256h-256zM0 256l512 512v512l256 256h1280l256 256v256h-1792l-512 -512v-384v-896z" />
    <glyph glyph-name="egrave" unicode="&#xe8;" 
d="M0 0v180v76l768 768l-768 768v256h512l768 -768h768v-512h-768l-256 -256h1024l256 -256v-256h-2304zM1280 1536l-512 512h1536v-256l-256 -256h-768zM1280 2304l-256 256v256h256l256 -256v-256h-256z" />
    <glyph glyph-name="eacute" unicode="&#xe9;" 
d="M0 0v180v76l768 768l-768 768v256h512l768 -768h768v-512h-768l-256 -256h1024l256 -256v-256h-2304zM1280 1536l-512 512h1536v-256l-256 -256h-768zM1024 2304v256l256 256h256v-256l-256 -256h-256z" />
    <glyph glyph-name="ecircumflex" unicode="&#xea;" 
d="M0 0v180v76l768 768l-768 768v256h512l768 -768h768v-512h-768l-256 -256h1024l256 -256v-256h-2304zM1280 1536l-512 512h1536v-256l-256 -256h-768zM768 2304v256l256 256h512l256 -256v-256h-256l-256 256l-256 -256h-256z" />
    <glyph glyph-name="edieresis" unicode="&#xeb;" 
d="M0 0v180v76l768 768l-768 768v256h512l768 -768h768v-512h-768l-256 -256h1024l256 -256v-256h-2304zM1280 1536l-512 512h1536v-256l-256 -256h-768zM512 2304v512h512v-512h-512zM1280 2304v512h512v-512h-512z" />
    <glyph glyph-name="igrave" unicode="&#xec;" horiz-adv-x="716" 
d="M0 0v1434v614h512v-2048h-512zM256 2304l-256 256v180v76h256l256 -256v-256h-256z" />
    <glyph glyph-name="iacute" unicode="&#xed;" horiz-adv-x="716" 
d="M0 0v1434v614h512v-2048h-512zM0 2304v180v76l256 256h256v-256l-256 -256h-256z" />
    <glyph glyph-name="icircumflex" unicode="&#xee;" horiz-adv-x="1228" 
d="M256 0v1280v768h512v-2048h-512zM0 2304v180v76l256 256h512l256 -256v-256h-256l-256 256l-256 -256h-256z" />
    <glyph glyph-name="idieresis" unicode="&#xef;" horiz-adv-x="1228" 
d="M256 0v1280v768h512v-2048h-512zM-128 2304v512h512v-512h-512zM640 2304v512h512v-512h-512z" />
    <glyph glyph-name="eth" unicode="&#xf0;" 
d="M256 0l-256 256v896v384l256 256h1024l256 -256v-256h-1024v-768h1280v1024l-768 768h-256v-256h-512v256h-256v512h256v256h512v-256h512l1024 -1024v-1536l-256 -256h-1792z" />
    <glyph glyph-name="ntilde" unicode="&#xf1;" 
d="M0 0v1076v460l512 -512v-1024h-512zM1792 0l-1792 1792v180v76h512l1280 -1280v1280h512v-2048h-512zM406 2304v256l256 256h512l256 -256l256 256h256v-256l-256 -256h-512l-256 256l-256 -256h-256z" />
    <glyph glyph-name="ograve" unicode="&#xf2;" 
d="M256 0l512 512h1024v768l512 512v-1536l-256 -256h-1792zM0 0v1254v538l256 256h2048l-512 -512h-1280v-1024zM1024 2304l-256 256v256h256l256 -256v-256h-256z" />
    <glyph glyph-name="oacute" unicode="&#xf3;" 
d="M256 0l512 512h1024v768l512 512v-1536l-256 -256h-1792zM0 0v1254v538l256 256h2048l-512 -512h-1280v-1024zM1024 2304v256l256 256h256v-256l-256 -256h-256z" />
    <glyph glyph-name="ocircumflex" unicode="&#xf4;" 
d="M256 0l512 512h1024v768l512 512v-1536l-256 -256h-1792zM0 0v1254v538l256 256h2048l-512 -512h-1280v-1024zM682 2304v256l256 256h512l256 -256v-256h-256l-256 256l-256 -256h-256z" />
    <glyph glyph-name="otilde" unicode="&#xf5;" 
d="M256 0l512 512h1024v768l512 512v-1536l-256 -256h-1792zM0 0v1254v538l256 256h2048l-512 -512h-1280v-1024zM452 2296v256l256 256h512l256 -256l256 256h256v-256l-256 -256h-512l-256 256l-256 -256h-256z" />
    <glyph glyph-name="odieresis" unicode="&#xf6;" 
d="M256 0l512 512h1024v768l512 512v-1536l-256 -256h-1792zM0 0v1254v538l256 256h2048l-512 -512h-1280v-1024zM512 2304v512h512v-512h-512zM1280 2304v512h512v-512h-512z" />
    <glyph glyph-name="divide" unicode="&#xf7;" horiz-adv-x="2252" 
d="M896 0l-128 128v256l128 128h256l128 -128v-256l-128 -128h-256zM0 768v358v154h2048v-512h-2048zM896 1536l-128 128v256l128 128h256l128 -128v-256l-128 -128h-256z" />
    <glyph glyph-name="oslash" unicode="&#xf8;" horiz-adv-x="2764" 
d="M-256 -512v256l256 256h172h84zM512 512l1024 1024h256l-1024 -1024h-256zM0 0v1254v538l256 256h1792l-512 -512h-1024v-1024zM256 0l512 512h1024v1024l512 512v-1792l-256 -256h-1792zM2048 2048l512 512v-256l-256 -256h-256z" />
    <glyph glyph-name="ugrave" unicode="&#xf9;" 
d="M256 0l-256 256v1254v538h512v-1536h1024l-512 -512h-768zM1280 0l512 512v1536h512v-1792l-256 -256h-768zM1024 2304l-256 256v256h256l256 -256v-256h-256z" />
    <glyph glyph-name="uacute" unicode="&#xfa;" 
d="M256 0l-256 256v1254v538h512v-1536h1024l-512 -512h-768zM1280 0l512 512v1536h512v-1792l-256 -256h-768zM1024 2304v256l256 256h256v-256l-256 -256h-256z" />
    <glyph glyph-name="ucircumflex" unicode="&#xfb;" 
d="M256 0l-256 256v1254v538h512v-1536h1024l-512 -512h-768zM1280 0l512 512v1536h512v-1792l-256 -256h-768zM768 2304v256l256 256h512l256 -256v-256h-256l-256 256l-256 -256h-256z" />
    <glyph glyph-name="udieresis" unicode="&#xfc;" 
d="M256 0l-256 256v1254v538h512v-1536h1024l-512 -512h-768zM1280 0l512 512v1536h512v-1792l-256 -256h-768zM512 2304v512h512v-512h-512zM1280 2304v512h512v-512h-512z" />
    <glyph glyph-name="yacute" unicode="&#xfd;" 
d="M640 1152l-640 640v180v76h512l512 -512zM768 0v1024l1024 1024h512v-256l-1024 -1024v-768h-512zM768 2304v256l256 256h256v-256l-256 -256h-256z" />
    <glyph glyph-name="thorn" unicode="&#xfe;" horiz-adv-x="1996" 
d="M1024 768l256 256l-256 256h-512v-512h512zM0 0v1434v614h512v-256h768l512 -512v-512l-512 -512h-768v-256h-512z" />
    <glyph glyph-name="ydieresis" unicode="&#xff;" 
d="M640 1152l-640 640v180v76h512l512 -512zM768 0v1024l1024 1024h512v-256l-1024 -1024v-768h-512zM512 2304v512h512v-512h-512zM1280 2304v512h512v-512h-512z" />
    <glyph glyph-name="Ā" unicode="&#x100;" 
d="M0 0v180v76l1792 1792h512v-2048h-512v256h-768l512 512h256v512l-1280 -1280h-512zM1280 2304v256h1536v-256h-1536z" />
    <glyph glyph-name="ā" unicode="&#x101;" 
d="M0 0v180v76l1792 1792h512v-2048h-512v256h-768l512 512h256v512l-1280 -1280h-512zM1280 2304v256h1536v-256h-1536z" />
    <glyph glyph-name="Ă" unicode="&#x102;" 
d="M0 0v180v76l1792 1792h512v-2048h-512v256h-768l512 512h256v512l-1280 -1280h-512zM1536 2304l-256 256v256h256l256 -256h512l256 256h256v-256l-256 -256h-1024z" />
    <glyph glyph-name="ă" unicode="&#x103;" 
d="M0 0v180v76l1792 1792h512v-2048h-512v256h-768l512 512h256v512l-1280 -1280h-512zM1536 2304l-256 256v256h256l256 -256h512l256 256h256v-256l-256 -256h-1024z" />
    <glyph glyph-name="Ą" unicode="&#x104;" 
d="M1536 -512l-256 256l512 512h-768l512 512h256v512l-1280 -1280h-512v180v76l1792 1792h512v-2048h-256l-256 -256l256 -256h-512z" />
    <glyph glyph-name="ą" unicode="&#x105;" 
d="M1536 -512l-256 256l512 512h-768l512 512h256v512l-1280 -1280h-512v180v76l1792 1792h512v-2048h-256l-256 -256l256 -256h-512z" />
    <glyph glyph-name="Cacute" unicode="&#x106;" 
d="M0 0l512 512h1536l256 -256v-256h-2304zM0 256v896v384l512 512h1792v-256l-256 -256h-1280l-256 -256v-512zM1024 2304v256l256 256h256v-256l-256 -256h-256z" />
    <glyph glyph-name="cacute" unicode="&#x107;" 
d="M0 0l512 512h1536l256 -256v-256h-2304zM0 256v896v384l512 512h1792v-256l-256 -256h-1280l-256 -256v-512zM1024 2304v256l256 256h256v-256l-256 -256h-256z" />
    <glyph glyph-name="Ĉ" unicode="&#x108;" 
d="M0 0l512 512h1536l256 -256v-256h-2304zM0 256v896v384l512 512h1792v-256l-256 -256h-1280l-256 -256v-512zM768 2304v256l256 256h512l256 -256v-256h-256l-256 256l-256 -256h-256z" />
    <glyph glyph-name="ĉ" unicode="&#x109;" 
d="M0 0l512 512h1536l256 -256v-256h-2304zM0 256v896v384l512 512h1792v-256l-256 -256h-1280l-256 -256v-512zM768 2304v256l256 256h512l256 -256v-256h-256l-256 256l-256 -256h-256z" />
    <glyph glyph-name="Ċ" unicode="&#x10a;" 
d="M0 0l512 512h1536l256 -256v-256h-2304zM0 256v896v384l512 512h1792v-256l-256 -256h-1280l-256 -256v-512zM1024 2304v512h512v-512h-512z" />
    <glyph glyph-name="ċ" unicode="&#x10b;" 
d="M0 0l512 512h1536l256 -256v-256h-2304zM0 256v896v384l512 512h1792v-256l-256 -256h-1280l-256 -256v-512zM1024 2304v512h512v-512h-512z" />
    <glyph glyph-name="Ccaron" unicode="&#x10c;" 
d="M0 0l512 512h1536l256 -256v-256h-2304zM0 256v896v384l512 512h1792v-256l-256 -256h-1280l-256 -256v-512zM1024 2304l-256 256v256h256l256 -256l256 256h256v-256l-256 -256h-512z" />
    <glyph glyph-name="ccaron" unicode="&#x10d;" 
d="M0 0l512 512h1536l256 -256v-256h-2304zM0 256v896v384l512 512h1792v-256l-256 -256h-1280l-256 -256v-512zM1024 2304l-256 256v256h256l256 -256l256 256h256v-256l-256 -256h-512z" />
    <glyph glyph-name="Ď" unicode="&#x10e;" 
d="M0 0l512 512h768l512 512l-512 512h-768v-768l-512 -512v1254v538h1536l768 -768v-512l-768 -768h-1536zM512 2304l-256 256v256h256l256 -256l256 256h256v-256l-256 -256h-512z" />
    <glyph glyph-name="ď" unicode="&#x10f;" 
d="M0 0l512 512h768l512 512l-512 512h-768v-768l-512 -512v1254v538h1536l768 -768v-512l-768 -768h-1536zM512 2304l-256 256v256h256l256 -256l256 256h256v-256l-256 -256h-512z" />
    <glyph glyph-name="Đ" unicode="&#x110;" horiz-adv-x="3020" 
d="M512 0l512 512h768l512 512l-512 512h-768v-768l-512 -512v512h-512v358v154h512v768h1536l768 -768v-512l-768 -768h-1536z" />
    <glyph glyph-name="dcroat" unicode="&#x111;" horiz-adv-x="3020" 
d="M512 0l512 512h768l512 512l-512 512h-768v-768l-512 -512v512h-512v358v154h512v768h1536l768 -768v-512l-768 -768h-1536z" />
    <glyph glyph-name="Ē" unicode="&#x112;" 
d="M0 0v180v76l768 768l-768 768v256h512l768 -768h768v-512h-768l-256 -256h1024l256 -256v-256h-2304zM1280 1536l-512 512h1536v-256l-256 -256h-768zM256 2304v256h1792v-256h-1792z" />
    <glyph glyph-name="ē" unicode="&#x113;" 
d="M0 0v180v76l768 768l-768 768v256h512l768 -768h768v-512h-768l-256 -256h1024l256 -256v-256h-2304zM1280 1536l-512 512h1536v-256l-256 -256h-768zM256 2304v256h1792v-256h-1792z" />
    <glyph glyph-name="Ĕ" unicode="&#x114;" 
d="M0 0v180v76l768 768l-768 768v256h512l768 -768h768v-512h-768l-256 -256h1024l256 -256v-256h-2304zM1280 1536l-512 512h1536v-256l-256 -256h-768zM682 2318l-256 256v256h256l256 -256h512l256 256h256v-256l-256 -256h-1024z" />
    <glyph glyph-name="ĕ" unicode="&#x115;" 
d="M0 0v180v76l768 768l-768 768v256h512l768 -768h768v-512h-768l-256 -256h1024l256 -256v-256h-2304zM1280 1536l-512 512h1536v-256l-256 -256h-768zM682 2318l-256 256v256h256l256 -256h512l256 256h256v-256l-256 -256h-1024z" />
    <glyph glyph-name="Ė" unicode="&#x116;" 
d="M0 0v180v76l768 768l-768 768v256h512l768 -768h768v-512h-768l-256 -256h1024l256 -256v-256h-2304zM1280 1536l-512 512h1536v-256l-256 -256h-768zM1024 2304v512h512v-512h-512z" />
    <glyph glyph-name="ė" unicode="&#x117;" 
d="M0 0v180v76l768 768l-768 768v256h512l768 -768h768v-512h-768l-256 -256h1024l256 -256v-256h-2304zM1280 1536l-512 512h1536v-256l-256 -256h-768zM1024 2304v512h512v-512h-512z" />
    <glyph glyph-name="Ę" unicode="&#x118;" 
d="M1792 -512l-256 256l256 256h-1792v180v76l768 768l-768 768v256h512l768 -768h768v-512h-768l-256 -256h1024l256 -256v-256l-256 -256l256 -256h-512zM1280 1536l-512 512h1536v-256l-256 -256h-768z" />
    <glyph glyph-name="ę" unicode="&#x119;" 
d="M1792 -512l-256 256l256 256h-1792v180v76l768 768l-768 768v256h512l768 -768h768v-512h-768l-256 -256h1024l256 -256v-256l-256 -256l256 -256h-512zM1280 1536l-512 512h1536v-256l-256 -256h-768z" />
    <glyph glyph-name="Ě" unicode="&#x11a;" 
d="M0 0v180v76l768 768l-768 768v256h512l768 -768h768v-512h-768l-256 -256h1024l256 -256v-256h-2304zM1280 1536l-512 512h1536v-256l-256 -256h-768zM1024 2304l-256 256v256h256l256 -256l256 256h256v-256l-256 -256h-512z" />
    <glyph glyph-name="ě" unicode="&#x11b;" 
d="M0 0v180v76l768 768l-768 768v256h512l768 -768h768v-512h-768l-256 -256h1024l256 -256v-256h-2304zM1280 1536l-512 512h1536v-256l-256 -256h-768zM1024 2304l-256 256v256h256l256 -256l256 256h256v-256l-256 -256h-512z" />
    <glyph glyph-name="Ĝ" unicode="&#x11c;" 
d="M1024 768v256l256 256h1024l-512 -512h-768zM256 0l-256 256v716v308l768 768h1536v-256l-256 -256h-1024l-512 -512v-512h1280l512 512v-768l-256 -256h-1792zM1024 2304v256l256 256h512l256 -256v-256h-256l-256 256l-256 -256h-256z" />
    <glyph glyph-name="ĝ" unicode="&#x11d;" 
d="M1024 768v256l256 256h1024l-512 -512h-768zM256 0l-256 256v716v308l768 768h1536v-256l-256 -256h-1024l-512 -512v-512h1280l512 512v-768l-256 -256h-1792zM1024 2304v256l256 256h512l256 -256v-256h-256l-256 256l-256 -256h-256z" />
    <glyph glyph-name="Gbreve" unicode="&#x11e;" 
d="M1024 768v256l256 256h1024l-512 -512h-768zM256 0l-256 256v716v308l768 768h1536v-256l-256 -256h-1024l-512 -512v-512h1280l512 512v-768l-256 -256h-1792zM1024 2304l-256 256v256h256l256 -256h512l256 256h256v-256l-256 -256h-1024z" />
    <glyph glyph-name="gbreve" unicode="&#x11f;" 
d="M1024 768v256l256 256h1024l-512 -512h-768zM256 0l-256 256v716v308l768 768h1536v-256l-256 -256h-1024l-512 -512v-512h1280l512 512v-768l-256 -256h-1792zM1024 2304v256l256 256h512l256 -256v-256h-256l-256 256l-256 -256h-256z" />
    <glyph glyph-name="Ġ" unicode="&#x120;" 
d="M1024 768v256l256 256h1024l-512 -512h-768zM256 0l-256 256v716v308l768 768h1536v-256l-256 -256h-1024l-512 -512v-512h1280l512 512v-768l-256 -256h-1792zM1280 2304v512h512v-512h-512z" />
    <glyph glyph-name="ġ" unicode="&#x121;" 
d="M1024 768v256l256 256h1024l-512 -512h-768zM256 0l-256 256v716v308l768 768h1536v-256l-256 -256h-1024l-512 -512v-512h1280l512 512v-768l-256 -256h-1792zM1280 2304v512h512v-512h-512z" />
    <glyph glyph-name="Ģ" unicode="&#x122;" 
d="M1024 768v256l256 256h1024l-512 -512h-768zM1024 -768v256l256 256h-256v256h-768l-256 256v716v308l768 768h1536v-256l-256 -256h-1024l-512 -512v-512h1280l512 512v-768l-256 -256h-512v-512l-256 -256h-256z" />
    <glyph glyph-name="ģ" unicode="&#x123;" 
d="M1024 768v256l256 256h1024l-512 -512h-768zM1024 -768v256l256 256h-256v256h-768l-256 256v716v308l768 768h1536v-256l-256 -256h-1024l-512 -512v-512h1280l512 512v-768l-256 -256h-512v-512l-256 -256h-256z" />
    <glyph glyph-name="Ĥ" unicode="&#x124;" 
d="M0 0v1434v614h512v-768h512l-512 -512v-768h-512zM1792 0v768h-1024l512 512h512v768h512v-2048h-512zM642 2298v256l256 256h512l256 -256v-256h-256l-256 256l-256 -256h-256z" />
    <glyph glyph-name="ĥ" unicode="&#x125;" 
d="M0 0v1434v614h512v-768h512l-512 -512v-768h-512zM1792 0v768h-1024l512 512h512v768h512v-2048h-512zM642 2298v256l256 256h512l256 -256v-256h-256l-256 256l-256 -256h-256z" />
    <glyph glyph-name="Ħ" unicode="&#x126;" horiz-adv-x="2764" 
d="M256 0v1536h-256v180v76h256v256h512v-256h1280v256h512v-256h256v-256h-256v-1536h-512v768h-1024l512 512h512v256h-1280v-256h512l-512 -512v-768h-512z" />
    <glyph glyph-name="ħ" unicode="&#x127;" horiz-adv-x="2764" 
d="M256 0v1536h-256v180v76h256v256h512v-256h1280v256h512v-256h256v-256h-256v-1536h-512v768h-1024l512 512h512v256h-1280v-256h512l-512 -512v-768h-512z" />
    <glyph glyph-name="Ĩ" unicode="&#x128;" horiz-adv-x="1740" 
d="M512 0v2048h512v-2048h-512zM0 2304v180v76l256 256h512l256 -256l256 256h256v-256l-256 -256h-512l-256 256l-256 -256h-256z" />
    <glyph glyph-name="ĩ" unicode="&#x129;" horiz-adv-x="1740" 
d="M512 0v2048h512v-2048h-512zM0 2304v180v76l256 256h512l256 -256l256 256h256v-256l-256 -256h-512l-256 256l-256 -256h-256z" />
    <glyph glyph-name="Ī" unicode="&#x12a;" horiz-adv-x="1228" 
d="M256 0v1280v768h512v-2048h-512zM0 2304v180v76h1024v-256h-1024z" />
    <glyph glyph-name="ī" unicode="&#x12b;" horiz-adv-x="1228" 
d="M256 0v1280v768h512v-2048h-512zM0 2304v180v76h1024v-256h-1024z" />
    <glyph glyph-name="Ĭ" unicode="&#x12c;" horiz-adv-x="1740" 
d="M512 0v2048h512v-2048h-512zM256 2304l-256 256v180v76h256l256 -256h512l256 256h256v-256l-256 -256h-1024z" />
    <glyph glyph-name="ĭ" unicode="&#x12d;" horiz-adv-x="1740" 
d="M512 0v2048h512v-2048h-512zM256 2304l-256 256v180v76h256l256 -256h512l256 256h256v-256l-256 -256h-1024z" />
    <glyph glyph-name="Į" unicode="&#x12e;" horiz-adv-x="716" 
d="M0 -512l-256 256l256 256v2048h512v-2048l-256 -256l256 -256h-512z" />
    <glyph glyph-name="į" unicode="&#x12f;" horiz-adv-x="716" 
d="M0 -512l-256 256l256 256v2048h512v-2048l-256 -256l256 -256h-512z" />
    <glyph glyph-name="Idotaccent" unicode="&#x130;" horiz-adv-x="716" 
d="M0 0v1434v614h512v-2048h-512zM0 2304v358v154h512v-512h-512z" />
    <glyph glyph-name="dotlessi" unicode="&#x131;" horiz-adv-x="716" 
d="M0 0v1434v614h512v-2048h-512zM0 2304v358v154h512v-512h-512z" />
    <glyph glyph-name="Ĳ" unicode="&#x132;" horiz-adv-x="3276" 
d="M768 0v256l256 256h1024l-512 -512h-768zM0 0v1434v614h512v-2048h-512zM1792 0l768 768v1280h512v-1536l-512 -512h-768z" />
    <glyph glyph-name="ĳ" unicode="&#x133;" horiz-adv-x="3276" 
d="M768 0v256l256 256h1024l-512 -512h-768zM0 0v1434v614h512v-2048h-512zM1792 0l768 768v1280h512v-1536l-512 -512h-768z" />
    <glyph glyph-name="Ĵ" unicode="&#x134;" 
d="M0 0v180v76l256 256h1024l-512 -512h-768zM1024 0l768 768v1280h512v-1536l-512 -512h-768zM1536 2304v256l256 256h512l256 -256v-256h-256l-256 256l-256 -256h-256z" />
    <glyph glyph-name="ĵ" unicode="&#x135;" 
d="M0 0v180v76l256 256h1024l-512 -512h-768zM1024 0l768 768v1280h512v-1536l-512 -512h-768zM1536 2304v256l256 256h512l256 -256v-256h-256l-256 256l-256 -256h-256z" />
    <glyph glyph-name="Ķ" unicode="&#x136;" 
d="M768 -768v256l256 256h-256v256h340h172v-512l-256 -256h-256zM0 0v1434v614h512v-2048h-512zM1792 0l-1024 1024l1024 1024h512v-256l-768 -768l768 -768v-256h-512z" />
    <glyph glyph-name="ķ" unicode="&#x137;" 
d="M768 -768v256l256 256h-256v256h340h172v-512l-256 -256h-256zM0 0v1434v614h512v-2048h-512zM1792 0l-1024 1024l1024 1024h512v-256l-768 -768l768 -768v-256h-512z" />
    <glyph glyph-name="ĸ" unicode="&#x138;" 
d="M0 0v1434v614h512v-2048h-512zM1792 0l-1024 1024l1024 1024h512v-256l-768 -768l768 -768v-256h-512z" />
    <glyph glyph-name="Ĺ" unicode="&#x139;" 
d="M256 0l512 512h1280l256 -256v-256h-2048zM0 0v1434v614h512v-1536zM0 2304v180v76l256 256h256v-256l-256 -256h-256z" />
    <glyph glyph-name="ĺ" unicode="&#x13a;" 
d="M256 0l512 512h1280l256 -256v-256h-2048zM0 0v1434v614h512v-1536zM0 2304v180v76l256 256h256v-256l-256 -256h-256z" />
    <glyph glyph-name="Ļ" unicode="&#x13b;" 
d="M1024 -768v256l256 256h-256v256h-768l512 512h1280l256 -256v-256h-768v-512l-256 -256h-256zM0 0v1434v614h512v-1536z" />
    <glyph glyph-name="ļ" unicode="&#x13c;" 
d="M1024 -768v256l256 256h-256v256h-768l512 512h1280l256 -256v-256h-768v-512l-256 -256h-256zM0 0v1434v614h512v-1536z" />
    <glyph glyph-name="Ľ" unicode="&#x13d;" 
d="M256 0l512 512h1280l256 -256v-256h-2048zM0 0v1434v614h512v-1536zM1024 1280v256l256 256h-256v256h512v-512l-256 -256h-256z" />
    <glyph glyph-name="ľ" unicode="&#x13e;" 
d="M256 0l512 512h1280l256 -256v-256h-2048zM0 0v1434v614h512v-1536zM1024 1280v256l256 256h-256v256h512v-512l-256 -256h-256z" />
    <glyph glyph-name="Ŀ" unicode="&#x13f;" 
d="M256 0l512 512h1280l256 -256v-256h-2048zM1024 1024v512h512v-512h-512zM0 0v1434v614h512v-1536z" />
    <glyph glyph-name="ŀ" unicode="&#x140;" 
d="M256 0l512 512h1280l256 -256v-256h-2048zM1024 1024v512h512v-512h-512zM0 0v1434v614h512v-1536z" />
    <glyph glyph-name="Lslash" unicode="&#x141;" horiz-adv-x="3020" 
d="M768 0l512 512h1280l256 -256v-256h-2048zM512 0v512l512 512v-512zM512 1536v512h512zM0 512v180v76l1280 1280h256v-256l-1280 -1280h-256z" />
    <glyph glyph-name="lslash" unicode="&#x142;" horiz-adv-x="3020" 
d="M768 0l512 512h1280l256 -256v-256h-2048zM512 0v512l512 512v-512zM512 1536v512h512zM0 512v180v76l1280 1280h256v-256l-1280 -1280h-256z" />
    <glyph glyph-name="Ń" unicode="&#x143;" 
d="M0 0v1076v460l512 -512v-1024h-512zM1792 0l-1792 1792v180v76h512l1280 -1280v1280h512v-2048h-512zM1024 2304v256l256 256h256v-256l-256 -256h-256z" />
    <glyph glyph-name="ń" unicode="&#x144;" 
d="M0 0v1076v460l512 -512v-1024h-512zM1792 0l-1792 1792v180v76h512l1280 -1280v1280h512v-2048h-512zM1024 2304v256l256 256h256v-256l-256 -256h-256z" />
    <glyph glyph-name="Ņ" unicode="&#x145;" 
d="M1024 -768v256l256 256h-256v256h340h172v-512l-256 -256h-256zM0 0v1076v460l512 -512v-1024h-512zM1792 0l-1792 1792v180v76h512l1280 -1280v1280h512v-2048h-512z" />
    <glyph glyph-name="ņ" unicode="&#x146;" 
d="M1024 -768v256l256 256h-256v256h340h172v-512l-256 -256h-256zM0 0v1076v460l512 -512v-1024h-512zM1792 0l-1792 1792v180v76h512l1280 -1280v1280h512v-2048h-512z" />
    <glyph glyph-name="Ň" unicode="&#x147;" 
d="M0 0v1076v460l512 -512v-1024h-512zM1792 0l-1792 1792v180v76h512l1280 -1280v1280h512v-2048h-512zM912 2304l-256 256v256h256l256 -256l256 256h256v-256l-256 -256h-512z" />
    <glyph glyph-name="ň" unicode="&#x148;" 
d="M0 0v1076v460l512 -512v-1024h-512zM1792 0l-1792 1792v180v76h512l1280 -1280v1280h512v-2048h-512zM912 2304l-256 256v256h256l256 -256l256 256h256v-256l-256 -256h-512z" />
    <glyph glyph-name="ŉ" unicode="&#x149;" horiz-adv-x="3276" 
d="M768 0v1536l512 -512v-1024h-512zM0 1280v180v76l256 256h-256v256h512v-512l-256 -256h-256zM2560 0l-1792 1792v256h512l1280 -1280v1280h512v-2048h-512z" />
    <glyph glyph-name="Ō" unicode="&#x14c;" 
d="M256 0l512 512h1024v768l512 512v-1536l-256 -256h-1792zM0 0v1254v538l256 256h2048l-512 -512h-1280v-1024zM512 2304v256h1280v-256h-1280z" />
    <glyph glyph-name="ō" unicode="&#x14d;" 
d="M256 0l512 512h1024v768l512 512v-1536l-256 -256h-1792zM0 0v1254v538l256 256h2048l-512 -512h-1280v-1024zM512 2304v256h1280v-256h-1280z" />
    <glyph glyph-name="Ŏ" unicode="&#x14e;" 
d="M256 0l512 512h1024v768l512 512v-1536l-256 -256h-1792zM0 0v1254v538l256 256h2048l-512 -512h-1280v-1024zM682 2304l-256 256v256h256l256 -256h512l256 256h256v-256l-256 -256h-1024z" />
    <glyph glyph-name="ŏ" unicode="&#x14f;" 
d="M256 0l512 512h1024v768l512 512v-1536l-256 -256h-1792zM0 0v1254v538l256 256h2048l-512 -512h-1280v-1024zM682 2304l-256 256v256h256l256 -256h512l256 256h256v-256l-256 -256h-1024z" />
    <glyph glyph-name="Ő" unicode="&#x150;" 
d="M256 0l512 512h1024v768l512 512v-1536l-256 -256h-1792zM0 0v1254v538l256 256h2048l-512 -512h-1280v-1024zM646 2312v256l256 256h256v-256l-256 -256h-256zM1414 2312v256l256 256h256v-256l-256 -256h-256z" />
    <glyph glyph-name="ő" unicode="&#x151;" 
d="M256 0l512 512h1024v768l512 512v-1536l-256 -256h-1792zM0 0v1254v538l256 256h2048l-512 -512h-1280v-1024zM646 2312v256l256 256h256v-256l-256 -256h-256zM1414 2312v256l256 256h256v-256l-256 -256h-256z" />
    <glyph glyph-name="OE" unicode="&#x152;" horiz-adv-x="4300" 
d="M0 0v1254v538l256 256h3840v-256l-256 -256h-1536v-256h1536v-512h-1536v-256h1536l256 -256v-256h-3840l512 512h1024v1024h-1280v-1024z" />
    <glyph glyph-name="oe" unicode="&#x153;" horiz-adv-x="4300" 
d="M0 0v1254v538l256 256h3840v-256l-256 -256h-1536v-256h1536v-512h-1536v-256h1536l256 -256v-256h-3840l512 512h1024v1024h-1280v-1024z" />
    <glyph glyph-name="Ŕ" unicode="&#x154;" 
d="M0 0v1434v614l512 -512v-1536h-512zM1792 0l-768 768h-256v512h512l256 256h-768l-512 512h2048v-512l-512 -512h-2q-9 -9 -25.5 -26t-47 -47.5t-53.5 -54.5l640 -640v-256h-512zM1024 2304v256l256 256h256v-256l-256 -256h-256z" />
    <glyph glyph-name="ŕ" unicode="&#x155;" 
d="M0 0v1434v614l512 -512v-1536h-512zM1792 0l-768 768h-256v512h512l256 256h-768l-512 512h2048v-512l-512 -512h-2q-9 -9 -25.5 -26t-47 -47.5t-53.5 -54.5l640 -640v-256h-512zM1024 2304v256l256 256h256v-256l-256 -256h-256z" />
    <glyph glyph-name="Ŗ" unicode="&#x156;" 
d="M768 -768v256l256 256h-256v256h340h172v-512l-256 -256h-256zM0 0v1434v614l512 -512v-1536h-512zM1792 0l-768 768h-256v512h512l256 256h-768l-512 512h2048v-512l-512 -512h-2q-9 -9 -25.5 -26t-47 -47.5t-53.5 -54.5l640 -640v-256h-512z" />
    <glyph glyph-name="ŗ" unicode="&#x157;" 
d="M768 -768v256l256 256h-256v256h340h172v-512l-256 -256h-256zM0 0v1434v614l512 -512v-1536h-512zM1792 0l-768 768h-256v512h512l256 256h-768l-512 512h2048v-512l-512 -512h-2q-9 -9 -25.5 -26t-47 -47.5t-53.5 -54.5l640 -640v-256h-512z" />
    <glyph glyph-name="Ř" unicode="&#x158;" 
d="M0 0v1434v614l512 -512v-1536h-512zM1792 0l-768 768h-256v512h512l256 256h-768l-512 512h2048v-512l-512 -512h-2q-9 -9 -25.5 -26t-47 -47.5t-53.5 -54.5l640 -640v-256h-512zM924 2304l-256 256v256h256l256 -256l256 256h256v-256l-256 -256h-512z" />
    <glyph glyph-name="ř" unicode="&#x159;" 
d="M0 0v1434v614l512 -512v-1536h-512zM1792 0l-768 768h-256v512h512l256 256h-768l-512 512h2048v-512l-512 -512h-2q-9 -9 -25.5 -26t-47 -47.5t-53.5 -54.5l640 -640v-256h-512zM924 2304l-256 256v256h256l256 -256l256 256h256v-256l-256 -256h-512z" />
    <glyph glyph-name="Ś" unicode="&#x15a;" 
d="M0 0v358v154h1280l-1280 1280v256h512l1792 -1792v-256h-2304zM1280 1536l-512 512h1536v-512h-1024zM1024 2304v256l256 256h256v-256l-256 -256h-256z" />
    <glyph glyph-name="ś" unicode="&#x15b;" 
d="M0 0v358v154h1280l-1280 1280v256h512l1792 -1792v-256h-2304zM1280 1536l-512 512h1536v-512h-1024zM1024 2304v256l256 256h256v-256l-256 -256h-256z" />
    <glyph glyph-name="Ŝ" unicode="&#x15c;" 
d="M0 0v358v154h1280l-1280 1280v256h512l1792 -1792v-256h-2304zM1280 1536l-512 512h1536v-512h-1024zM644 2304v256l256 256h512l256 -256v-256h-256l-256 256l-256 -256h-256z" />
    <glyph glyph-name="ŝ" unicode="&#x15d;" 
d="M0 0v358v154h1280l-1280 1280v256h512l1792 -1792v-256h-2304zM1280 1536l-512 512h1536v-512h-1024zM644 2304v256l256 256h512l256 -256v-256h-256l-256 256l-256 -256h-256z" />
    <glyph glyph-name="Scedilla" unicode="&#x15e;" 
d="M1024 -768v256l256 256h-256v256h-1024v358v154h1280l-1280 1280v256h512l1792 -1792v-256h-768v-512l-256 -256h-256zM1280 1536l-512 512h1536v-512h-1024z" />
    <glyph glyph-name="scedilla" unicode="&#x15f;" 
d="M1024 -768v256l256 256h-256v256h-1024v358v154h1280l-1280 1280v256h512l1792 -1792v-256h-768v-512l-256 -256h-256zM1280 1536l-512 512h1536v-512h-1024z" />
    <glyph glyph-name="Scaron" unicode="&#x160;" 
d="M0 0v358v154h1280l-1280 1280v256h512l1792 -1792v-256h-2304zM1280 1536l-512 512h1536v-512h-1024zM900 2304l-256 256v256h256l256 -256l256 256h256v-256l-256 -256h-512z" />
    <glyph glyph-name="scaron" unicode="&#x161;" 
d="M0 0v358v154h1280l-1280 1280v256h512l1792 -1792v-256h-2304zM1280 1536l-512 512h1536v-512h-1024zM900 2304l-256 256v256h256l256 -256l256 256h256v-256l-256 -256h-512z" />
    <glyph glyph-name="Ţ" unicode="&#x162;" horiz-adv-x="2252" 
d="M768 -768v256l256 256h-256v1792h-768v358v154h2048v-256l-256 -256h-512v-2048l-256 -256h-256z" />
    <glyph glyph-name="ţ" unicode="&#x163;" horiz-adv-x="2252" 
d="M768 -768v256l256 256h-256v1792h-768v358v154h2048v-256l-256 -256h-512v-2048l-256 -256h-256z" />
    <glyph glyph-name="Ť" unicode="&#x164;" horiz-adv-x="2252" 
d="M768 0v1536h-768v358v154h2048v-256l-256 -256h-512v-1536h-512zM768 2304l-256 256v256h256l256 -256l256 256h256v-256l-256 -256h-512z" />
    <glyph glyph-name="ť" unicode="&#x165;" horiz-adv-x="2252" 
d="M768 0v1536h-768v358v154h2048v-256l-256 -256h-512v-1536h-512zM768 2304l-256 256v256h256l256 -256l256 256h256v-256l-256 -256h-512z" />
    <glyph glyph-name="Ŧ" unicode="&#x166;" horiz-adv-x="2252" 
d="M768 0v768h-512v256h512v512h-768v358v154h2048v-256l-256 -256h-512v-512h512v-256h-512v-768h-512z" />
    <glyph glyph-name="ŧ" unicode="&#x167;" horiz-adv-x="2252" 
d="M768 0v768h-512v256h512v512h-768v358v154h2048v-256l-256 -256h-512v-512h512v-256h-512v-768h-512z" />
    <glyph glyph-name="Ũ" unicode="&#x168;" 
d="M256 0l-256 256v1254v538h512v-1536h1024l-512 -512h-768zM1280 0l512 512v1536h512v-1792l-256 -256h-768zM430 2304v256l256 256h512l256 -256l256 256h256v-256l-256 -256h-512l-256 256l-256 -256h-256z" />
    <glyph glyph-name="ũ" unicode="&#x169;" 
d="M256 0l-256 256v1254v538h512v-1536h1024l-512 -512h-768zM1280 0l512 512v1536h512v-1792l-256 -256h-768zM430 2304v256l256 256h512l256 -256l256 256h256v-256l-256 -256h-512l-256 256l-256 -256h-256z" />
    <glyph glyph-name="Ū" unicode="&#x16a;" 
d="M256 0l-256 256v1254v538h512v-1536h1024l-512 -512h-768zM1280 0l512 512v1536h512v-1792l-256 -256h-768zM512 2304v256h1280v-256h-1280z" />
    <glyph glyph-name="ū" unicode="&#x16b;" 
d="M256 0l-256 256v1254v538h512v-1536h1024l-512 -512h-768zM1280 0l512 512v1536h512v-1792l-256 -256h-768zM512 2304v256h1280v-256h-1280z" />
    <glyph glyph-name="Ŭ" unicode="&#x16c;" 
d="M256 0l-256 256v1254v538h512v-1536h1024l-512 -512h-768zM1280 0l512 512v1536h512v-1792l-256 -256h-768zM512 2304l-256 256v256h256l256 -256h768l256 256h256v-256l-256 -256h-1280z" />
    <glyph glyph-name="ŭ" unicode="&#x16d;" 
d="M256 0l-256 256v1254v538h512v-1536h1024l-512 -512h-768zM1280 0l512 512v1536h512v-1792l-256 -256h-768zM512 2304l-256 256v256h256l256 -256h768l256 256h256v-256l-256 -256h-1280z" />
    <glyph glyph-name="Ů" unicode="&#x16e;" 
d="M256 0l-256 256v1254v538h512v-1536h1024l-512 -512h-768zM1280 0l512 512v1536h512v-1792l-256 -256h-768zM1072 2304l-128 128v256l128 128h256l128 -128v-256l-128 -128h-256z" />
    <glyph glyph-name="ů" unicode="&#x16f;" 
d="M256 0l-256 256v1254v538h512v-1536h1024l-512 -512h-768zM1280 0l512 512v1536h512v-1792l-256 -256h-768zM1072 2304l-128 128v256l128 128h256l128 -128v-256l-128 -128h-256z" />
    <glyph glyph-name="Ű" unicode="&#x170;" 
d="M256 0l-256 256v1254v538h512v-1536h1024l-512 -512h-768zM1280 0l512 512v1536h512v-1792l-256 -256h-768zM512 2304v256l256 256h256v-256l-256 -256h-256zM1280 2304v256l256 256h256v-256l-256 -256h-256z" />
    <glyph glyph-name="ű" unicode="&#x171;" 
d="M256 0l-256 256v1254v538h512v-1536h1024l-512 -512h-768zM1280 0l512 512v1536h512v-1792l-256 -256h-768zM512 2304v256l256 256h256v-256l-256 -256h-256zM1280 2304v256l256 256h256v-256l-256 -256h-256z" />
    <glyph glyph-name="Ų" unicode="&#x172;" 
d="M256 0l-256 256v1254v538h512v-1536h1024l-512 -512h-768zM1536 -768l-256 256v512l512 512v1536h512v-1792l-512 -512h-256l256 -256v-256h-256z" />
    <glyph glyph-name="ų" unicode="&#x173;" 
d="M256 0l-256 256v1254v538h512v-1536h1024l-512 -512h-768zM1536 -768l-256 256v512l512 512v1536h512v-1792l-512 -512h-256l256 -256v-256h-256z" />
    <glyph glyph-name="Ŵ" unicode="&#x174;" horiz-adv-x="3532" 
d="M1792 0l-1792 1792v180v76h512l1792 -1792v-256h-512zM2816 0l-1792 1792v256h512l1792 -1792v-256h-512zM3328 512l-512 512v1024h512v-1536zM1280 2304v256l256 256h512l256 -256v-256h-256l-256 256l-256 -256h-256z" />
    <glyph glyph-name="ŵ" unicode="&#x175;" horiz-adv-x="3532" 
d="M1792 0l-1792 1792v180v76h512l1792 -1792v-256h-512zM2816 0l-1792 1792v256h512l1792 -1792v-256h-512zM3328 512l-512 512v1024h512v-1536zM1280 2304v256l256 256h512l256 -256v-256h-256l-256 256l-256 -256h-256z" />
    <glyph glyph-name="Ŷ" unicode="&#x176;" 
d="M640 1152l-640 640v180v76h512l512 -512zM768 0v1024l1024 1024h512v-256l-1024 -1024v-768h-512zM768 2304v256l256 256h512l256 -256v-256h-256l-256 256l-256 -256h-256z" />
    <glyph glyph-name="ŷ" unicode="&#x177;" 
d="M640 1152l-640 640v180v76h512l512 -512zM768 0v1024l1024 1024h512v-256l-1024 -1024v-768h-512zM768 2304v256l256 256h512l256 -256v-256h-256l-256 256l-256 -256h-256z" />
    <glyph glyph-name="Ydieresis" unicode="&#x178;" 
d="M640 1152l-640 640v180v76h512l512 -512zM768 0v1024l1024 1024h512v-256l-1024 -1024v-768h-512zM512 2304v512h512v-512h-512zM1280 2304v512h512v-512h-512z" />
    <glyph glyph-name="Ź" unicode="&#x179;" 
d="M768 0l512 512h1024v-512h-1536zM0 0v256l1280 1280h-1280v358v154h2304v-256l-1792 -1792h-512zM1024 2304v256l256 256h256v-256l-256 -256h-256z" />
    <glyph glyph-name="ź" unicode="&#x17a;" 
d="M768 0l512 512h1024v-512h-1536zM0 0v256l1280 1280h-1280v358v154h2304v-256l-1792 -1792h-512zM1024 2304v256l256 256h256v-256l-256 -256h-256z" />
    <glyph glyph-name="Ż" unicode="&#x17b;" 
d="M768 0l512 512h1024v-512h-1536zM0 0v256l1280 1280h-1280v358v154h2304v-256l-1792 -1792h-512zM1024 2304v512h512v-512h-512z" />
    <glyph glyph-name="ż" unicode="&#x17c;" 
d="M768 0l512 512h1024v-512h-1536zM0 0v256l1280 1280h-1280v358v154h2304v-256l-1792 -1792h-512zM1024 2304v512h512v-512h-512z" />
    <glyph glyph-name="Zcaron" unicode="&#x17d;" 
d="M768 0l512 512h1024v-512h-1536zM0 0v256l1280 1280h-1280v358v154h2304v-256l-1792 -1792h-512zM1024 2304l-256 256v256h256l256 -256l256 256h256v-256l-256 -256h-512z" />
    <glyph glyph-name="zcaron" unicode="&#x17e;" 
d="M768 0l512 512h1024v-512h-1536zM0 0v256l1280 1280h-1280v358v154h2304v-256l-1792 -1792h-512zM1024 2304l-256 256v256h256l256 -256l256 256h256v-256l-256 -256h-512z" />
    <glyph glyph-name="ǃ" unicode="&#x1c3;" horiz-adv-x="716" 
d="M0 0v358v154h512v-512h-512zM128 768l-128 256v716v308h512v-1024l-128 -256h-256z" />
    <glyph glyph-name="Ǆ" unicode="&#x1c4;" horiz-adv-x="4812" 
d="M3072 0l512 512h1024v-512h-1536zM0 0l512 512h768l512 512l-512 512h-768v-768l-512 -512v1254v538h1536l768 -768v-512l-768 -768h-1536zM2304 0v256l1280 1280h-1280v512h2304v-256l-1792 -1792h-512zM3328 2304l-256 256v256h256l256 -256l256 256h256v-256
l-256 -256h-512z" />
    <glyph glyph-name="ǅ" unicode="&#x1c5;" horiz-adv-x="4812" 
d="M3072 0l512 512h1024v-512h-1536zM0 0l512 512h768l512 512l-512 512h-768v-768l-512 -512v1254v538h1536l768 -768v-512l-768 -768h-1536zM2304 0v256l1280 1280h-1280v512h2304v-256l-1792 -1792h-512zM3328 2304l-256 256v256h256l256 -256l256 256h256v-256
l-256 -256h-512z" />
    <glyph glyph-name="ǆ" unicode="&#x1c6;" horiz-adv-x="4812" 
d="M3072 0l512 512h1024v-512h-1536zM0 0l512 512h768l512 512l-512 512h-768v-768l-512 -512v1254v538h1536l768 -768v-512l-768 -768h-1536zM2304 0v256l1280 1280h-1280v512h2304v-256l-1792 -1792h-512zM3328 2304l-256 256v256h256l256 -256l256 256h256v-256
l-256 -256h-512z" />
    <glyph glyph-name="Ǉ" unicode="&#x1c7;" horiz-adv-x="5068" 
d="M256 0l512 512h1280l256 -256v-256h-2048zM2560 0v256l256 256h1024l-512 -512h-768zM0 0v1434v614h512v-1536zM3584 0l768 768v1280h512v-1536l-512 -512h-768z" />
    <glyph glyph-name="ǈ" unicode="&#x1c8;" horiz-adv-x="5068" 
d="M256 0l512 512h1280l256 -256v-256h-2048zM2560 0v256l256 256h1024l-512 -512h-768zM0 0v1434v614h512v-1536zM3584 0l768 768v1280h512v-1536l-512 -512h-768z" />
    <glyph glyph-name="ǉ" unicode="&#x1c9;" horiz-adv-x="5068" 
d="M256 0l512 512h1280l256 -256v-256h-2048zM2560 0v256l256 256h1024l-512 -512h-768zM0 0v1434v614h512v-1536zM3584 0l768 768v1280h512v-1536l-512 -512h-768z" />
    <glyph glyph-name="Ǌ" unicode="&#x1ca;" horiz-adv-x="5068" 
d="M2560 0v256l256 256h1024l-512 -512h-768zM0 0v1076v460l512 -512v-1024h-512zM1792 0l-1792 1792v180v76h512l1280 -1280v1280h512v-2048h-512zM3584 0l768 768v1280h512v-1536l-512 -512h-768z" />
    <glyph glyph-name="ǋ" unicode="&#x1cb;" horiz-adv-x="5068" 
d="M2560 0v256l256 256h1024l-512 -512h-768zM0 0v1076v460l512 -512v-1024h-512zM1792 0l-1792 1792v180v76h512l1280 -1280v1280h512v-2048h-512zM3584 0l768 768v1280h512v-1536l-512 -512h-768z" />
    <glyph glyph-name="ǌ" unicode="&#x1cc;" horiz-adv-x="5068" 
d="M2560 0v256l256 256h1024l-512 -512h-768zM0 0v1076v460l512 -512v-1024h-512zM1792 0l-1792 1792v180v76h512l1280 -1280v1280h512v-2048h-512zM3584 0l768 768v1280h512v-1536l-512 -512h-768z" />
    <glyph glyph-name="Ǎ" unicode="&#x1cd;" 
d="M0 0v180v76l1792 1792h512v-2048h-512v256h-768l512 512h256v512l-1280 -1280h-512zM1792 2304l-256 256v256h256l256 -256l256 256h256v-256l-256 -256h-512z" />
    <glyph glyph-name="ǎ" unicode="&#x1ce;" 
d="M0 0v180v76l1792 1792h512v-2048h-512v256h-768l512 512h256v512l-1280 -1280h-512zM1792 2304l-256 256v256h256l256 -256l256 256h256v-256l-256 -256h-512z" />
    <glyph glyph-name="Ǐ" unicode="&#x1cf;" horiz-adv-x="972" 
d="M256 0v1280v768h512v-2048h-512zM256 2304l-256 256v180v76h256l256 -256l256 256h256v-256l-256 -256h-512z" />
    <glyph glyph-name="ǐ" unicode="&#x1d0;" horiz-adv-x="972" 
d="M256 0v1280v768h512v-2048h-512zM256 2304l-256 256v180v76h256l256 -256l256 256h256v-256l-256 -256h-512z" />
    <glyph glyph-name="Ǒ" unicode="&#x1d1;" 
d="M256 0l512 512h1024v768l512 512v-1536l-256 -256h-1792zM0 0v1254v538l256 256h2048l-512 -512h-1280v-1024zM946 2290l-256 256v256h256l256 -256l256 256h256v-256l-256 -256h-512z" />
    <glyph glyph-name="ǒ" unicode="&#x1d2;" 
d="M256 0l512 512h1024v768l512 512v-1536l-256 -256h-1792zM0 0v1254v538l256 256h2048l-512 -512h-1280v-1024zM946 2290l-256 256v256h256l256 -256l256 256h256v-256l-256 -256h-512z" />
    <glyph glyph-name="Ǔ" unicode="&#x1d3;" 
d="M256 0l-256 256v1254v538h512v-1536h1024l-512 -512h-768zM1280 0l512 512v1536h512v-1792l-256 -256h-768zM914 2304l-256 256v256h256l256 -256l256 256h256v-256l-256 -256h-512z" />
    <glyph glyph-name="ǔ" unicode="&#x1d4;" 
d="M256 0l-256 256v1254v538h512v-1536h1024l-512 -512h-768zM1280 0l512 512v1536h512v-1792l-256 -256h-768zM914 2304l-256 256v256h256l256 -256l256 256h256v-256l-256 -256h-512z" />
    <glyph glyph-name="Ǖ" unicode="&#x1d5;" 
d="M256 0l-256 256v1254v538h512v-1536h1024l-512 -512h-768zM1280 0l512 512v1536h512v-1792l-256 -256h-768zM512 2304v512h512v-512h-512zM1280 2304v512h512v-512h-512zM512 3072v256h1280v-256h-1280z" />
    <glyph glyph-name="ǖ" unicode="&#x1d6;" 
d="M256 0l-256 256v1254v538h512v-1536h1024l-512 -512h-768zM1280 0l512 512v1536h512v-1792l-256 -256h-768zM512 2304v512h512v-512h-512zM1280 2304v512h512v-512h-512zM512 3072v256h1280v-256h-1280z" />
    <glyph glyph-name="Ǘ" unicode="&#x1d7;" 
d="M256 0l-256 256v1254v538h512v-1536h1024l-512 -512h-768zM1280 0l512 512v1536h512v-1792l-256 -256h-768zM512 2304v512h512v-512h-512zM1280 2304v512h512v-512h-512zM1024 3072v256l256 256h256v-256l-256 -256h-256z" />
    <glyph glyph-name="ǘ" unicode="&#x1d8;" 
d="M256 0l-256 256v1254v538h512v-1536h1024l-512 -512h-768zM1280 0l512 512v1536h512v-1792l-256 -256h-768zM512 2304v512h512v-512h-512zM1280 2304v512h512v-512h-512zM1024 3072v256l256 256h256v-256l-256 -256h-256z" />
    <glyph glyph-name="Ǚ" unicode="&#x1d9;" 
d="M256 0l-256 256v1254v538h512v-1536h1024l-512 -512h-768zM1280 0l512 512v1536h512v-1792l-256 -256h-768zM512 2304v512h512v-512h-512zM1280 2304v512h512v-512h-512zM900 3072l-256 256v256h256l256 -256l256 256h256v-256l-256 -256h-512z" />
    <glyph glyph-name="ǚ" unicode="&#x1da;" 
d="M256 0l-256 256v1254v538h512v-1536h1024l-512 -512h-768zM1280 0l512 512v1536h512v-1792l-256 -256h-768zM512 2304v512h512v-512h-512zM1280 2304v512h512v-512h-512zM900 3072l-256 256v256h256l256 -256l256 256h256v-256l-256 -256h-512z" />
    <glyph glyph-name="Ǜ" unicode="&#x1db;" 
d="M256 0l-256 256v1254v538h512v-1536h1024l-512 -512h-768zM1280 0l512 512v1536h512v-1792l-256 -256h-768zM512 2304v512h512v-512h-512zM1280 2304v512h512v-512h-512zM1024 3072l-256 256v256h256l256 -256v-256h-256z" />
    <glyph glyph-name="ǜ" unicode="&#x1dc;" 
d="M256 0l-256 256v1254v538h512v-1536h1024l-512 -512h-768zM1280 0l512 512v1536h512v-1792l-256 -256h-768zM512 2304v512h512v-512h-512zM1280 2304v512h512v-512h-512zM1024 3072l-256 256v256h256l256 -256v-256h-256z" />
    <glyph glyph-name="Ǟ" unicode="&#x1de;" 
d="M0 0v180v76l1792 1792h512v-2048h-512v256h-768l512 512h256v512l-1280 -1280h-512zM1408 2304v512h512v-512h-512zM2176 2304v512h512v-512h-512zM1280 3072v256h1536v-256h-1536z" />
    <glyph glyph-name="ǟ" unicode="&#x1df;" 
d="M0 0v180v76l1792 1792h512v-2048h-512v256h-768l512 512h256v512l-1280 -1280h-512zM1408 2304v512h512v-512h-512zM2176 2304v512h512v-512h-512zM1280 3072v256h1536v-256h-1536z" />
    <glyph glyph-name="Ǡ" unicode="&#x1e0;" 
d="M0 0v180v76l1792 1792h512v-2048h-512v256h-768l512 512h256v512l-1280 -1280h-512zM1920 2304l-128 128v256l128 128h256l128 -128v-256l-128 -128h-256zM1280 3072v256h1536v-256h-1536z" />
    <glyph glyph-name="ǡ" unicode="&#x1e1;" 
d="M0 0v180v76l1792 1792h512v-2048h-512v256h-768l512 512h256v512l-1280 -1280h-512zM1920 2304l-128 128v256l128 128h256l128 -128v-256l-128 -128h-256zM1280 3072v256h1536v-256h-1536z" />
    <glyph glyph-name="Ǣ" unicode="&#x1e2;" horiz-adv-x="4300" 
d="M0 0v180v76l1792 1792h2304v-256l-256 -256h-1536v-256h1536v-512h-1536v-256h1536l256 -256v-256h-2304v256h-768l512 512h256v512l-1280 -1280h-512zM2048 2304v256h1792v-256h-1792z" />
    <glyph glyph-name="ǣ" unicode="&#x1e3;" horiz-adv-x="4300" 
d="M0 0v180v76l1792 1792h2304v-256l-256 -256h-1536v-256h1536v-512h-1536v-256h1536l256 -256v-256h-2304v256h-768l512 512h256v512l-1280 -1280h-512zM2048 2304v256h1792v-256h-1792z" />
    <glyph glyph-name="Ǥ" unicode="&#x1e4;" horiz-adv-x="3020" 
d="M1536 768v256l256 256h1024l-512 -512h-768zM768 0l-256 256v256h-512v358v154h512v256l768 768h1536v-256l-256 -256h-1024l-512 -512v-512h1280l512 512v-768l-256 -256h-1792z" />
    <glyph glyph-name="ǥ" unicode="&#x1e5;" horiz-adv-x="3020" 
d="M1536 768v256l256 256h1024l-512 -512h-768zM768 0l-256 256v256h-512v358v154h512v256l768 768h1536v-256l-256 -256h-1024l-512 -512v-512h1280l512 512v-768l-256 -256h-1792z" />
    <glyph glyph-name="Ǧ" unicode="&#x1e6;" 
d="M1024 768v256l256 256h1024l-512 -512h-768zM256 0l-256 256v716v308l768 768h1536v-256l-256 -256h-1024l-512 -512v-512h1280l512 512v-768l-256 -256h-1792zM1280 2304l-256 256v256h256l256 -256l256 256h256v-256l-256 -256h-512z" />
    <glyph glyph-name="ǧ" unicode="&#x1e7;" 
d="M1024 768v256l256 256h1024l-512 -512h-768zM256 0l-256 256v716v308l768 768h1536v-256l-256 -256h-1024l-512 -512v-512h1280l512 512v-768l-256 -256h-1792zM1280 2304l-256 256v256h256l256 -256l256 256h256v-256l-256 -256h-512z" />
    <glyph glyph-name="Ǩ" unicode="&#x1e8;" 
d="M0 0v1434v614h512v-2048h-512zM1792 0l-1024 1024l1024 1024h512v-256l-768 -768l768 -768v-256h-512zM768 2304l-256 256v256h256l256 -256l256 256h256v-256l-256 -256h-512z" />
    <glyph glyph-name="ǩ" unicode="&#x1e9;" 
d="M0 0v1434v614h512v-2048h-512zM1792 0l-1024 1024l1024 1024h512v-256l-768 -768l768 -768v-256h-512zM768 2304l-256 256v256h256l256 -256l256 256h256v-256l-256 -256h-512z" />
    <glyph glyph-name="Ǫ" unicode="&#x1ea;" 
d="M1024 -512l-256 256l256 256h-768l512 512h1024v768l512 512v-1536l-256 -256h-512l-256 -256l256 -256h-512zM0 0v1254v538l256 256h2048l-512 -512h-1280v-1024z" />
    <glyph glyph-name="ǫ" unicode="&#x1eb;" 
d="M1024 -512l-256 256l256 256h-768l512 512h1024v768l512 512v-1536l-256 -256h-512l-256 -256l256 -256h-512zM0 0v1254v538l256 256h2048l-512 -512h-1280v-1024z" />
    <glyph glyph-name="Ǭ" unicode="&#x1ec;" 
d="M1024 -512l-256 256l256 256h-768l512 512h1024v768l512 512v-1536l-256 -256h-512l-256 -256l256 -256h-512zM0 0v1254v538l256 256h2048l-512 -512h-1280v-1024zM512 2304v256h1280v-256h-1280z" />
    <glyph glyph-name="ǭ" unicode="&#x1ed;" 
d="M1024 -512l-256 256l256 256h-768l512 512h1024v768l512 512v-1536l-256 -256h-512l-256 -256l256 -256h-512zM0 0v1254v538l256 256h2048l-512 -512h-1280v-1024zM512 2304v256h1280v-256h-1280z" />
    <glyph glyph-name="ǰ" unicode="&#x1f0;" 
d="M0 0v180v76l256 256h1024l-512 -512h-768zM1024 0l768 768v1280h512v-1536l-512 -512h-768zM1792 2304l-256 256v256h256l256 -256l256 256h256v-256l-256 -256h-512z" />
    <glyph glyph-name="Ǳ" unicode="&#x1f1;" horiz-adv-x="4812" 
d="M3072 0l512 512h1024v-512h-1536zM0 0l512 512h768l512 512l-512 512h-768v-768l-512 -512v1254v538h1536l768 -768v-512l-768 -768h-1536zM2304 0v256l1280 1280h-1280v512h2304v-256l-1792 -1792h-512z" />
    <glyph glyph-name="ǲ" unicode="&#x1f2;" horiz-adv-x="4812" 
d="M3072 0l512 512h1024v-512h-1536zM0 0l512 512h768l512 512l-512 512h-768v-768l-512 -512v1254v538h1536l768 -768v-512l-768 -768h-1536zM2304 0v256l1280 1280h-1280v512h2304v-256l-1792 -1792h-512z" />
    <glyph glyph-name="ǳ" unicode="&#x1f3;" horiz-adv-x="4812" 
d="M3072 0l512 512h1024v-512h-1536zM0 0l512 512h768l512 512l-512 512h-768v-768l-512 -512v1254v538h1536l768 -768v-512l-768 -768h-1536zM2304 0v256l1280 1280h-1280v512h2304v-256l-1792 -1792h-512z" />
    <glyph glyph-name="Ǵ" unicode="&#x1f4;" 
d="M1024 768v256l256 256h1024l-512 -512h-768zM256 0l-256 256v716v308l768 768h1536v-256l-256 -256h-1024l-512 -512v-512h1280l512 512v-768l-256 -256h-1792zM1280 2304v256l256 256h256v-256l-256 -256h-256z" />
    <glyph glyph-name="ǵ" unicode="&#x1f5;" 
d="M1024 768v256l256 256h1024l-512 -512h-768zM256 0l-256 256v716v308l768 768h1536v-256l-256 -256h-1024l-512 -512v-512h1280l512 512v-768l-256 -256h-1792zM1280 2304v256l256 256h256v-256l-256 -256h-256z" />
    <glyph glyph-name="Ǹ" unicode="&#x1f8;" 
d="M0 0v1076v460l512 -512v-1024h-512zM1792 0l-1792 1792v180v76h512l1280 -1280v1280h512v-2048h-512zM1024 2304l-256 256v256h256l256 -256v-256h-256z" />
    <glyph glyph-name="ǹ" unicode="&#x1f9;" 
d="M0 0v1076v460l512 -512v-1024h-512zM1792 0l-1792 1792v180v76h512l1280 -1280v1280h512v-2048h-512zM1024 2304l-256 256v256h256l256 -256v-256h-256z" />
    <glyph glyph-name="Ǻ" unicode="&#x1fa;" 
d="M0 0v180v76l1792 1792h512v-2048h-512v256h-768l512 512h256v512l-1280 -1280h-512zM1920 2304l-128 128v256l128 128h256l128 -128v-256l-128 -128h-256zM1792 3072v256l256 256h256v-256l-256 -256h-256z" />
    <glyph glyph-name="ǻ" unicode="&#x1fb;" 
d="M0 0v180v76l1792 1792h512v-2048h-512v256h-768l512 512h256v512l-1280 -1280h-512zM1920 2304l-128 128v256l128 128h256l128 -128v-256l-128 -128h-256zM1792 3072v256l256 256h256v-256l-256 -256h-256z" />
    <glyph glyph-name="Ǽ" unicode="&#x1fc;" horiz-adv-x="4300" 
d="M0 0v180v76l1792 1792h2304v-256l-256 -256h-1536v-256h1536v-512h-1536v-256h1536l256 -256v-256h-2304v256h-768l512 512h256v512l-1280 -1280h-512zM2304 2304v256l256 256h256v-256l-256 -256h-256z" />
    <glyph glyph-name="ǽ" unicode="&#x1fd;" horiz-adv-x="4300" 
d="M0 0v180v76l1792 1792h2304v-256l-256 -256h-1536v-256h1536v-512h-1536v-256h1536l256 -256v-256h-2304v256h-768l512 512h256v512l-1280 -1280h-512zM2304 2304v256l256 256h256v-256l-256 -256h-256z" />
    <glyph glyph-name="Ǿ" unicode="&#x1fe;" horiz-adv-x="2764" 
d="M-256 -512v256l256 256h172h84zM512 512l1024 1024h256l-1024 -1024h-256zM0 0v1254v538l256 256h1792l-512 -512h-1024v-1024zM256 0l512 512h1024v1024l512 512v-1792l-256 -256h-1792zM2048 2048l512 512v-256l-256 -256h-256zM1024 2304v256l256 256h256v-256
l-256 -256h-256z" />
    <glyph glyph-name="ǿ" unicode="&#x1ff;" horiz-adv-x="2764" 
d="M-256 -512v256l256 256h172h84zM512 512l1024 1024h256l-1024 -1024h-256zM0 0v1254v538l256 256h1792l-512 -512h-1024v-1024zM256 0l512 512h1024v1024l512 512v-1792l-256 -256h-1792zM2048 2048l512 512v-256l-256 -256h-256zM1024 2304v256l256 256h256v-256
l-256 -256h-256z" />
    <glyph glyph-name="Ȁ" unicode="&#x200;" 
d="M0 0v180v76l1792 1792h512v-2048h-512v256h-768l512 512h256v512l-1280 -1280h-512zM1536 2304l-256 256v256h256l256 -256v-256h-256zM2304 2304l-256 256v256h256l256 -256v-256h-256z" />
    <glyph glyph-name="ȁ" unicode="&#x201;" 
d="M0 0v180v76l1792 1792h512v-2048h-512v256h-768l512 512h256v512l-1280 -1280h-512zM1536 2304l-256 256v256h256l256 -256v-256h-256zM2304 2304l-256 256v256h256l256 -256v-256h-256z" />
    <glyph glyph-name="Ȃ" unicode="&#x202;" horiz-adv-x="2764" 
d="M0 0v180v76l1792 1792h512v-2048h-512v256h-768l512 512h256v512l-1280 -1280h-512zM1280 2304v256l256 256h1024l256 -256v-256h-256l-256 256h-512l-256 -256h-256z" />
    <glyph glyph-name="ȃ" unicode="&#x203;" horiz-adv-x="2764" 
d="M0 0v180v76l1792 1792h512v-2048h-512v256h-768l512 512h256v512l-1280 -1280h-512zM1280 2304v256l256 256h1024l256 -256v-256h-256l-256 256h-512l-256 -256h-256z" />
    <glyph glyph-name="Ȅ" unicode="&#x204;" 
d="M0 0v180v76l768 768l-768 768v256h512l768 -768h768v-512h-768l-256 -256h1024l256 -256v-256h-2304zM1280 1536l-512 512h1536v-256l-256 -256h-768zM768 2304l-256 256v256h256l256 -256v-256h-256zM1536 2304l-256 256v256h256l256 -256v-256h-256z" />
    <glyph glyph-name="ȅ" unicode="&#x205;" 
d="M0 0v180v76l768 768l-768 768v256h512l768 -768h768v-512h-768l-256 -256h1024l256 -256v-256h-2304zM1280 1536l-512 512h1536v-256l-256 -256h-768zM768 2304l-256 256v256h256l256 -256v-256h-256zM1536 2304l-256 256v256h256l256 -256v-256h-256z" />
    <glyph glyph-name="Ȇ" unicode="&#x206;" 
d="M0 0v180v76l768 768l-768 768v256h512l768 -768h768v-512h-768l-256 -256h1024l256 -256v-256h-2304zM1280 1536l-512 512h1536v-256l-256 -256h-768zM512 2304v256l256 256h1024l256 -256v-256h-256l-256 256h-512l-256 -256h-256z" />
    <glyph glyph-name="ȇ" unicode="&#x207;" 
d="M0 0v180v76l768 768l-768 768v256h512l768 -768h768v-512h-768l-256 -256h1024l256 -256v-256h-2304zM1280 1536l-512 512h1536v-256l-256 -256h-768zM512 2304v256l256 256h1024l256 -256v-256h-256l-256 256h-512l-256 -256h-256z" />
    <glyph glyph-name="Ȉ" unicode="&#x208;" horiz-adv-x="1484" 
d="M512 0v2048h512v-2048h-512zM256 2304l-256 256v180v76h256l256 -256v-256h-256zM1024 2304l-256 256v256h256l256 -256v-256h-256z" />
    <glyph glyph-name="ȉ" unicode="&#x209;" horiz-adv-x="1484" 
d="M512 0v2048h512v-2048h-512zM256 2304l-256 256v180v76h256l256 -256v-256h-256zM1024 2304l-256 256v256h256l256 -256v-256h-256z" />
    <glyph glyph-name="Ȋ" unicode="&#x20a;" horiz-adv-x="1740" 
d="M512 0v2048h512v-2048h-512zM0 2304v180v76l256 256h1024l256 -256v-256h-256l-256 256h-512l-256 -256h-256z" />
    <glyph glyph-name="ȋ" unicode="&#x20b;" horiz-adv-x="1740" 
d="M512 0v2048h512v-2048h-512zM0 2304v180v76l256 256h1024l256 -256v-256h-256l-256 256h-512l-256 -256h-256z" />
    <glyph glyph-name="Ȍ" unicode="&#x20c;" 
d="M256 0l512 512h1024v768l512 512v-1536l-256 -256h-1792zM0 0v1254v538l256 256h2048l-512 -512h-1280v-1024zM768 2304l-256 256v256h256l256 -256v-256h-256zM1536 2304l-256 256v256h256l256 -256v-256h-256z" />
    <glyph glyph-name="ȍ" unicode="&#x20d;" 
d="M256 0l512 512h1024v768l512 512v-1536l-256 -256h-1792zM0 0v1254v538l256 256h2048l-512 -512h-1280v-1024zM768 2304l-256 256v256h256l256 -256v-256h-256zM1536 2304l-256 256v256h256l256 -256v-256h-256z" />
    <glyph glyph-name="Ȏ" unicode="&#x20e;" 
d="M256 0l512 512h1024v768l512 512v-1536l-256 -256h-1792zM0 0v1254v538l256 256h2048l-512 -512h-1280v-1024zM438 2304v256l256 256h1024l256 -256v-256h-256l-256 256h-512l-256 -256h-256z" />
    <glyph glyph-name="ȏ" unicode="&#x20f;" 
d="M256 0l512 512h1024v768l512 512v-1536l-256 -256h-1792zM0 0v1254v538l256 256h2048l-512 -512h-1280v-1024zM438 2304v256l256 256h1024l256 -256v-256h-256l-256 256h-512l-256 -256h-256z" />
    <glyph glyph-name="Ȑ" unicode="&#x210;" 
d="M0 0v1434v614l512 -512v-1536h-512zM1792 0l-768 768h-256v512h512l256 256h-768l-512 512h2048v-512l-512 -512h-2q-9 -9 -25.5 -26t-47 -47.5t-53.5 -54.5l640 -640v-256h-512zM768 2304l-256 256v256h256l256 -256v-256h-256zM1536 2304l-256 256v256h256l256 -256
v-256h-256z" />
    <glyph glyph-name="ȑ" unicode="&#x211;" 
d="M0 0v1434v614l512 -512v-1536h-512zM1792 0l-768 768h-256v512h512l256 256h-768l-512 512h2048v-512l-512 -512h-2q-9 -9 -25.5 -26t-47 -47.5t-53.5 -54.5l640 -640v-256h-512zM768 2304l-256 256v256h256l256 -256v-256h-256zM1536 2304l-256 256v256h256l256 -256
v-256h-256z" />
    <glyph glyph-name="Ȓ" unicode="&#x212;" 
d="M0 0v1434v614l512 -512v-1536h-512zM1792 0l-768 768h-256v512h512l256 256h-768l-512 512h2048v-512l-512 -512h-2q-9 -9 -25.5 -26t-47 -47.5t-53.5 -54.5l640 -640v-256h-512zM424 2304v256l256 256h1024l256 -256v-256h-256l-256 256h-512l-256 -256h-256z" />
    <glyph glyph-name="ȓ" unicode="&#x213;" 
d="M0 0v1434v614l512 -512v-1536h-512zM1792 0l-768 768h-256v512h512l256 256h-768l-512 512h2048v-512l-512 -512h-2q-9 -9 -25.5 -26t-47 -47.5t-53.5 -54.5l640 -640v-256h-512zM424 2304v256l256 256h1024l256 -256v-256h-256l-256 256h-512l-256 -256h-256z" />
    <glyph glyph-name="Ȕ" unicode="&#x214;" 
d="M256 0l-256 256v1254v538h512v-1536h1024l-512 -512h-768zM1280 0l512 512v1536h512v-1792l-256 -256h-768zM768 2304l-256 256v256h256l256 -256v-256h-256zM1536 2304l-256 256v256h256l256 -256v-256h-256z" />
    <glyph glyph-name="ȕ" unicode="&#x215;" 
d="M256 0l-256 256v1254v538h512v-1536h1024l-512 -512h-768zM1280 0l512 512v1536h512v-1792l-256 -256h-768zM768 2304l-256 256v256h256l256 -256v-256h-256zM1536 2304l-256 256v256h256l256 -256v-256h-256z" />
    <glyph glyph-name="Ȗ" unicode="&#x216;" 
d="M256 0l-256 256v1254v538h512v-1536h1024l-512 -512h-768zM1280 0l512 512v1536h512v-1792l-256 -256h-768zM388 2304v256l256 256h1024l256 -256v-256h-256l-256 256h-512l-256 -256h-256z" />
    <glyph glyph-name="ȗ" unicode="&#x217;" 
d="M256 0l-256 256v1254v538h512v-1536h1024l-512 -512h-768zM1280 0l512 512v1536h512v-1792l-256 -256h-768zM388 2304v256l256 256h1024l256 -256v-256h-256l-256 256h-512l-256 -256h-256z" />
    <glyph glyph-name="Ș" unicode="&#x218;" 
d="M1024 -1024v256l256 256h-256v256h512v-512l-256 -256h-256zM0 0v358v154h1280l-1280 1280v256h512l1792 -1792v-256h-2304zM1280 1536l-512 512h1536v-512h-1024z" />
    <glyph glyph-name="ș" unicode="&#x219;" 
d="M1024 -1024v256l256 256h-256v256h512v-512l-256 -256h-256zM0 0v358v154h1280l-1280 1280v256h512l1792 -1792v-256h-2304zM1280 1536l-512 512h1536v-512h-1024z" />
    <glyph glyph-name="Ț" unicode="&#x21a;" horiz-adv-x="2252" 
d="M768 -1024v256l256 256h-256v256h512v-512l-256 -256h-256zM768 0v1536h-768v358v154h2048v-256l-256 -256h-512v-1536h-512z" />
    <glyph glyph-name="ț" unicode="&#x21b;" horiz-adv-x="2252" 
d="M768 -1024v256l256 256h-256v256h512v-512l-256 -256h-256zM768 0v1536h-768v358v154h2048v-256l-256 -256h-512v-1536h-512z" />
    <glyph glyph-name="Ȟ" unicode="&#x21e;" 
d="M0 0v1434v614h512v-768h512l-512 -512v-768h-512zM1792 0v768h-1024l512 512h512v768h512v-2048h-512zM898 2304l-256 256v256h256l256 -256l256 256h256v-256l-256 -256h-512z" />
    <glyph glyph-name="ȟ" unicode="&#x21f;" 
d="M0 0v1434v614h512v-768h512l-512 -512v-768h-512zM1792 0v768h-1024l512 512h512v768h512v-2048h-512zM898 2304l-256 256v256h256l256 -256l256 256h256v-256l-256 -256h-512z" />
    <glyph glyph-name="Ȧ" unicode="&#x226;" 
d="M0 0v180v76l1792 1792h512v-2048h-512v256h-768l512 512h256v512l-1280 -1280h-512zM1792 2304v512h512v-512h-512z" />
    <glyph glyph-name="ȧ" unicode="&#x227;" 
d="M0 0v180v76l1792 1792h512v-2048h-512v256h-768l512 512h256v512l-1280 -1280h-512zM1792 2304v512h512v-512h-512z" />
    <glyph glyph-name="Ȩ" unicode="&#x228;" 
d="M1024 -768v256l256 256h-256v256h-1024v180v76l768 768l-768 768v256h512l768 -768h768v-512h-768l-256 -256h1024l256 -256v-256h-768v-512l-256 -256h-256zM1280 1536l-512 512h1536v-256l-256 -256h-768z" />
    <glyph glyph-name="ȩ" unicode="&#x229;" 
d="M1024 -768v256l256 256h-256v256h-1024v180v76l768 768l-768 768v256h512l768 -768h768v-512h-768l-256 -256h1024l256 -256v-256h-768v-512l-256 -256h-256zM1280 1536l-512 512h1536v-256l-256 -256h-768z" />
    <glyph glyph-name="Ȫ" unicode="&#x22a;" 
d="M256 0l512 512h1024v768l512 512v-1536l-256 -256h-1792zM0 0v1254v538l256 256h2048l-512 -512h-1280v-1024zM512 2304v512h512v-512h-512zM1280 2304v512h512v-512h-512zM512 3072v256h1280v-256h-1280z" />
    <glyph glyph-name="ȫ" unicode="&#x22b;" 
d="M256 0l512 512h1024v768l512 512v-1536l-256 -256h-1792zM0 0v1254v538l256 256h2048l-512 -512h-1280v-1024zM512 2304v512h512v-512h-512zM1280 2304v512h512v-512h-512zM512 3072v256h1280v-256h-1280z" />
    <glyph glyph-name="Ȭ" unicode="&#x22c;" 
d="M256 0l512 512h1024v768l512 512v-1536l-256 -256h-1792zM0 0v1254v538l256 256h2048l-512 -512h-1280v-1024zM388 2304v256l256 256h512l256 -256l256 256h256v-256l-256 -256h-512l-256 256l-256 -256h-256zM512 3072v256h1280v-256h-1280z" />
    <glyph glyph-name="ȭ" unicode="&#x22d;" 
d="M256 0l512 512h1024v768l512 512v-1536l-256 -256h-1792zM0 0v1254v538l256 256h2048l-512 -512h-1280v-1024zM388 2304v256l256 256h512l256 -256l256 256h256v-256l-256 -256h-512l-256 256l-256 -256h-256zM512 3072v256h1280v-256h-1280z" />
    <glyph glyph-name="Ȯ" unicode="&#x22e;" 
d="M256 0l512 512h1024v768l512 512v-1536l-256 -256h-1792zM0 0v1254v538l256 256h2048l-512 -512h-1280v-1024zM896 2304v512h512v-512h-512z" />
    <glyph glyph-name="ȯ" unicode="&#x22f;" 
d="M256 0l512 512h1024v768l512 512v-1536l-256 -256h-1792zM0 0v1254v538l256 256h2048l-512 -512h-1280v-1024zM896 2304v512h512v-512h-512z" />
    <glyph glyph-name="Ȱ" unicode="&#x230;" 
d="M256 0l512 512h1024v768l512 512v-1536l-256 -256h-1792zM0 0v1254v538l256 256h2048l-512 -512h-1280v-1024zM896 2304v512h512v-512h-512zM512 3072v256h1280v-256h-1280z" />
    <glyph glyph-name="ȱ" unicode="&#x231;" 
d="M256 0l512 512h1024v768l512 512v-1536l-256 -256h-1792zM0 0v1254v538l256 256h2048l-512 -512h-1280v-1024zM896 2304v512h512v-512h-512zM512 3072v256h1280v-256h-1280z" />
    <glyph glyph-name="Ȳ" unicode="&#x232;" 
d="M640 1152l-640 640v180v76h512l512 -512zM768 0v1024l1024 1024h512v-256l-1024 -1024v-768h-512zM512 2304v256h1280v-256h-1280z" />
    <glyph glyph-name="ȳ" unicode="&#x233;" 
d="M640 1152l-640 640v180v76h512l512 -512zM768 0v1024l1024 1024h512v-256l-1024 -1024v-768h-512zM512 2304v256h1280v-256h-1280z" />
    <glyph glyph-name="Ʌ" unicode="&#x245;" 
d="M0 0v180v76l1792 1792h512v-2048h-512v1280l-1280 -1280h-512z" />
    <glyph glyph-name="Ɍ" unicode="&#x24c;" horiz-adv-x="3020" 
d="M512 0v768h-512v358v154h512v768l512 -512v-1536h-512zM2304 0l-768 768h-256v512h512l256 256h-768l-512 512h2048v-512l-512 -512h-2q-9 -9 -25.5 -26t-47 -47.5t-53.5 -54.5l640 -640v-256h-512z" />
    <glyph glyph-name="΄" unicode="&#x384;" horiz-adv-x="716" 
d="M0 1536v358v154l256 256h256v-512l-256 -256h-256z" />
    <glyph glyph-name="΅" unicode="&#x385;" horiz-adv-x="2252" 
d="M0 1536v180v76l256 256h256v-256l-256 -256h-256zM1536 1536v256l256 256h256v-256l-256 -256h-256zM768 1536v512l256 256h256v-512l-256 -256h-256z" />
    <glyph glyph-name="emdash" unicode="&#x2014;" horiz-adv-x="3020" 
d="M0 768v358v154h2816v-512h-2816z" />
    <glyph glyph-name="quoteleft" unicode="&#x2018;" horiz-adv-x="716" 
d="M0 1536v358v154l256 256h256v-256l-256 -256h256v-256h-512z" />
    <glyph glyph-name="quoteright" unicode="&#x2019;" horiz-adv-x="716" 
d="M0 1536v180v76l256 256h-256v256h512v-512l-256 -256h-256z" />
    <glyph glyph-name="quotesinglbase" unicode="&#x201a;" horiz-adv-x="716" 
d="M0 0v180v76l256 256h-256v256h512v-512l-256 -256h-256z" />
    <glyph glyph-name="‛" unicode="&#x201b;" horiz-adv-x="716" 
d="M256 1536l-256 256v358v154h512v-256h-256l256 -256v-256h-256z" />
    <glyph glyph-name="quotedblleft" unicode="&#x201c;" horiz-adv-x="1484" 
d="M0 1536v358v154l256 256h256v-256l-256 -256h256v-256h-512zM768 1536v512l256 256h256v-256l-256 -256h256v-256h-512z" />
    <glyph glyph-name="quotedblright" unicode="&#x201d;" horiz-adv-x="1484" 
d="M0 1536v180v76l256 256h-256v256h512v-512l-256 -256h-256zM768 1536v256l256 256h-256v256h512v-512l-256 -256h-256z" />
    <glyph glyph-name="quotedblbase" unicode="&#x201e;" horiz-adv-x="1484" 
d="M0 0v180v76l256 256h-256v256h512v-512l-256 -256h-256zM768 0v256l256 256h-256v256h512v-512l-256 -256h-256z" />
    <glyph glyph-name="bullet" unicode="&#x2022;" horiz-adv-x="972" 
d="M384 768l-128 128v256l128 128h256l128 -128v-256l-128 -128h-256z" />
    <glyph glyph-name="ellipsis" unicode="&#x2026;" horiz-adv-x="2764" 
d="M0 0v358v154h512v-512h-512zM1024 0v512h512v-512h-512zM2048 0v512h512v-512h-512z" />
    <glyph glyph-name="guilsinglleft" unicode="&#x2039;" horiz-adv-x="1740" 
d="M1024 0l-1024 1024l1024 1024h512v-256l-768 -768l768 -768v-256h-512z" />
    <glyph glyph-name="guilsinglright" unicode="&#x203a;" horiz-adv-x="1740" 
d="M0 0v180v76l768 768l-768 768v256h512l1024 -1024l-1024 -1024h-512z" />
    <glyph glyph-name="€" unicode="&#x20ac;" horiz-adv-x="2764" 
d="M512 0l-256 256v384h-256v180v76h256v256h-256v256h256v384l256 256h2048v-256l-256 -256h-1536v-128h768v-256h-768v-256h768v-256h-768v-128h1536l256 -256v-256h-2048z" />
  </font>
</defs>
</svg>
